<?xml version="1.0" standalone="no"?>
<!DOCTYPE svg PUBLIC "-//W3C//DTD SVG 20010904//EN"
 "http://www.w3.org/TR/2001/REC-SVG-20010904/DTD/svg10.dtd">
<svg version="1.0" xmlns="http://www.w3.org/2000/svg"
 width="512.000000pt" height="512.000000pt" viewBox="0 0 512.000000 512.000000"
 preserveAspectRatio="xMidYMid meet">
<metadata>
Created by potrace 1.11, written by Peter Selinger 2001-2013
</metadata>
<g transform="translate(0.000000,512.000000) scale(0.100000,-0.100000)"
fill="#000000" stroke="none">
<path d="M2494 4345 c-28 -12 -117 -104 -224 -230 -23 -27 -52 -61 -64 -75
-12 -14 -53 -63 -91 -110 -38 -47 -72 -87 -75 -90 -15 -13 -246 -319 -322
-425 -79 -111 -258 -381 -258 -389 0 -2 -19 -35 -42 -72 -62 -103 -192 -377
-227 -479 -59 -175 -66 -220 -65 -405 0 -124 5 -161 28 -255 134 -526 522
-933 1031 -1080 44 -13 98 -27 120 -30 22 -4 51 -9 65 -12 48 -10 318 -11 366
-2 27 5 60 11 74 13 89 12 237 63 358 122 209 102 411 269 552 459 69 92 177
304 214 418 48 148 61 231 60 397 -1 136 -4 167 -28 255 -110 404 -430 928
-963 1578 -63 76 -124 150 -138 165 -13 15 -33 38 -45 52 -96 112 -170 185
-197 196 -40 17 -88 17 -129 -1z m136 -463 c30 -36 93 -111 138 -166 46 -56
91 -110 100 -121 244 -293 527 -713 653 -965 119 -241 159 -380 154 -540 -4
-141 -12 -189 -47 -295 -72 -222 -220 -390 -438 -500 -85 -43 -214 -88 -280
-99 -19 -3 -60 -10 -90 -16 -70 -15 -355 -21 -440 -10 -119 15 -164 22 -187
31 -13 5 -23 7 -23 4 0 -8 -177 58 -244 91 -306 154 -469 419 -481 784 -4 129
15 226 74 377 123 314 428 774 836 1262 66 79 136 163 155 187 19 24 42 43 50
43 8 0 40 -30 70 -67z"/>
<path d="M2445 3562 c-18 -12 -126 -149 -239 -301 -201 -272 -217 -303 -178
-351 14 -17 30 -23 62 -24 43 -1 43 -1 103 84 101 143 187 260 278 375 47 61
89 121 92 134 7 28 -15 76 -38 85 -22 8 -68 7 -80 -2z"/>
<path d="M1849 2706 c-93 -107 -222 -482 -193 -563 18 -53 94 -67 131 -23 9
10 26 65 38 122 25 118 66 227 119 317 20 34 38 72 40 84 12 72 -87 118 -135
63z"/>
</g>
</svg>
