<svg width="342" height="617" viewBox="0 0 342 617" fill="none" xmlns="http://www.w3.org/2000/svg">
<path d="M216.05 188.76C212.117 191.7 209.065 195.66 207.226 200.211C205.386 204.762 204.829 209.73 205.614 214.575C207.019 223.714 206.339 233.051 203.625 241.89C201.636 248.081 194.729 268.831 219.165 268.38C243.602 267.93 245.141 239.301 242.326 224.631C239.51 209.96 244.653 199.679 240.974 195.214C237.296 190.749 228.925 179.493 216.05 188.76Z" fill="url(#paint0_linear)"/>
<path d="M308.429 242.228C312.971 238.476 317.588 234.724 318.526 238.776C319.464 242.828 319.502 242.528 316.236 245.567C312.971 248.607 304.562 245.23 308.429 242.228Z" fill="#FFAF84"/>
<path d="M308.541 241.44C305.463 242.828 283.842 247.181 275.058 249.92H274.833C270.441 248.719 258.392 242.866 242.213 235.662C237.437 234.201 232.293 234.507 227.724 236.525C224.834 237.988 223.97 242.941 229.113 245.605C234.732 248.519 240.553 251.027 246.53 253.109C255.084 256.66 264.031 259.179 273.181 260.614C274.093 260.839 275.047 260.839 275.959 260.614C284.247 258.851 292.186 255.732 299.457 251.383C306.965 247.369 310.118 248.644 311.356 246.205C312.595 243.766 310.868 240.39 308.541 241.44Z" fill="url(#paint1_linear)"/>
<path d="M294.99 504.99C294.99 507.278 270.366 509.154 239.998 509.154C209.631 509.154 185.007 507.278 185.007 504.99C185.007 502.701 209.631 500.787 239.998 500.787C270.366 500.787 294.99 502.776 294.99 504.99Z" fill="#D8D8D8"/>
<path d="M210.157 492.307C210.465 493.753 210.653 495.221 210.72 496.697C211.02 498.461 212.634 499.099 213.572 500.45C214.511 501.8 216.238 504.577 209.819 504.727C203.4 504.877 199.008 504.389 200.134 500.562C200.957 498.39 201.401 496.093 201.448 493.771C201.346 493.198 201.36 492.611 201.489 492.044C201.618 491.477 201.859 490.941 202.199 490.469C202.987 489.831 209.068 488.48 210.157 492.307Z" fill="url(#paint2_linear)"/>
<path d="M222.544 218.74C222.544 219.228 221.68 229.996 221.53 238.251C221.53 242.303 224.383 246.13 227.311 246.243C229.054 245.942 230.625 245.011 231.725 243.627C232.826 242.243 233.379 240.504 233.279 238.739C232.829 231.572 233.279 224.218 233.279 224.105L222.544 218.74Z" fill="#ED9169"/>
<path d="M214.173 265.229C216.514 272.578 218.246 280.108 219.353 287.741C220.179 293.377 220.179 299.103 219.353 304.739C218.865 308.153 218.227 311.53 217.439 314.832C217.138 316.108 214.661 326.313 214.548 327.401H261.057C260.606 318.284 250.208 289.617 257.303 271.119C262.145 258.25 255.689 257.874 251.297 247.181C250.4 244.435 249.137 241.823 247.543 239.414C245.689 237.235 243.193 235.698 240.411 235.024C238.99 234.714 237.547 234.513 236.095 234.424C228.212 233.786 209.819 231.497 207.904 242.716C207.506 245.772 207.814 248.878 208.805 251.796C209.856 255.06 211.433 258.137 212.559 261.326C213.235 262.64 213.91 263.915 214.173 265.229Z" fill="url(#paint3_linear)"/>
<path d="M214.661 357.043C214.661 357.043 210.645 346.912 214.473 327.476H261.057C262.116 337.297 262.668 347.166 262.708 357.043H214.661Z" fill="url(#paint4_linear)"/>
<path d="M223.858 420.229C227.611 404.508 212.108 401.731 207.229 413.138C200.284 429.234 200.847 480.676 201.223 490.919C201.223 492.27 201.973 492.045 202.724 491.745C204.275 491.08 205.956 490.772 207.642 490.844C208.192 491.003 208.705 491.271 209.15 491.632C209.595 491.993 209.963 492.44 210.232 492.945C211.696 478.987 220.254 435.5 223.858 420.229Z" fill="url(#paint5_linear)"/>
<path d="M237.784 359.144C239.435 339.633 231.966 324.437 220.292 330.891C218.068 332.343 216.226 334.307 214.919 336.618C213.613 338.929 212.881 341.52 212.784 344.173C212.108 349.276 208.505 402.444 207.229 412.049C204.376 433.699 220.855 427.883 222.656 421.88C227.273 406.721 236.883 369.8 237.784 359.144Z" fill="url(#paint6_linear)"/>
<path d="M265.298 419.254C265.937 404.583 252.16 404.92 248.707 416.852C243.264 435.613 252.686 475.948 253.249 498.949C255.651 494.971 257.904 493.996 258.992 494.108C259.517 494.158 260.025 494.317 260.485 494.575C260.944 494.834 261.343 495.186 261.657 495.609C261.32 465.255 264.66 434.937 265.298 419.254Z" fill="url(#paint7_linear)"/>
<path d="M249.27 420.867C251.072 426.833 266.838 433.774 265.186 411.974C264.473 402.294 262.521 348.939 262.145 343.798C261.77 338.658 260.907 331.116 258.392 330.178C245.929 325.488 233.88 340.834 237.146 360.195C239.36 373.065 245.479 408.447 249.27 420.867Z" fill="url(#paint8_linear)"/>
<path d="M315.523 237.425C317.589 235.705 320.033 234.496 322.655 233.898C324.682 233.711 320.29 236.075 318.901 237.463C317.513 238.851 313.684 238.851 315.523 237.425Z" fill="#FFAF84"/>
<path d="M216.388 305.376C222.056 304.251 224.946 302.337 227.649 303.763C230.351 305.189 226.448 310.217 224.496 311.042C222.544 311.868 215.75 315.357 213.76 313.481C213.233 312.822 212.877 312.041 212.726 311.211C212.574 310.38 212.631 309.525 212.891 308.722C213.152 307.918 213.607 307.192 214.218 306.609C214.828 306.025 215.574 305.601 216.388 305.376Z" fill="#FFAF84"/>
<path d="M197.281 280.575C200.51 275.547 207.717 266.092 216.575 253.822C219.008 249.464 219.769 244.368 218.715 239.489C217.889 236.375 213.235 234.424 209.518 239.001C205.509 243.897 201.858 249.076 198.595 254.498C188.986 269.881 186.283 277.273 185.457 280.763C185.331 281.473 185.413 282.205 185.692 282.871C185.972 283.536 186.438 284.107 187.034 284.515C187.111 284.702 187.212 284.878 187.334 285.04C192.166 291.94 198.086 298.009 204.864 303.013C211.62 308.453 211.696 311.718 214.398 311.868C217.101 312.018 219.653 309.016 217.777 307.328C215.9 305.639 203.512 288.004 197.281 280.575Z" fill="url(#paint9_linear)"/>
<path d="M215.337 212.511C217.701 221.441 218.302 223.392 222.844 226.469C227.294 229.322 232.637 230.444 237.859 229.621C242.476 228.908 245.141 223.43 245.591 219.415C246.057 211.525 245.142 203.615 242.889 196.039C241.671 193.136 239.559 190.697 236.858 189.077C234.157 187.457 231.01 186.742 227.874 187.034C221.192 188.047 209.556 190.711 215.337 212.511Z" fill="#FFAF84"/>
<path d="M262.22 495.534C263.957 497.738 266.232 499.456 268.827 500.525C272.355 502.101 279.825 502.813 275.696 504.277C271.993 505.148 268.138 505.148 264.435 504.277C261.871 503.945 259.287 503.795 256.702 503.827C252.949 503.827 252.949 503.564 253.399 499.286C253.887 493.433 260.531 492.195 262.22 495.534Z" fill="#2C27CE"/>
<path d="M240.411 191.537C244.953 197.015 220.892 212.324 215.036 212.286C209.181 212.249 208.655 201.03 212.221 194.801C215.787 188.573 229.713 178.554 240.411 191.537Z" fill="url(#paint10_linear)"/>
<path d="M230.577 191.537C232.341 196.527 241.537 196.265 243.752 200.242C245.141 202.756 244.24 194.351 241.5 190.899C238.76 187.447 227.048 181.519 230.577 191.537Z" fill="url(#paint11_linear)"/>
<path d="M219.653 211.048C220.967 214.237 220.667 217.351 219.015 218.064C217.364 218.777 214.924 216.714 213.648 213.524C212.371 210.335 212.634 207.221 214.286 206.545C215.937 205.87 218.377 207.896 219.653 211.048Z" fill="#FFAF84"/>
<defs>
<linearGradient id="paint0_linear" x1="238.685" y1="158.556" x2="219.706" y2="246.021" gradientUnits="userSpaceOnUse">
<stop stop-color="#2C27CE"/>
<stop offset="1" stop-color="#EF1D68"/>
</linearGradient>
<linearGradient id="paint1_linear" x1="253.249" y1="247.143" x2="301.108" y2="251.837" gradientUnits="userSpaceOnUse">
<stop stop-color="#36078B"/>
<stop offset="1" stop-color="#16B1FF"/>
</linearGradient>
<linearGradient id="paint2_linear" x1="207.416" y1="495.985" x2="208.579" y2="461.053" gradientUnits="userSpaceOnUse">
<stop stop-color="#2C27CE"/>
<stop offset="0.65" stop-color="#EF1D68"/>
<stop offset="1" stop-color="#EFBA92"/>
</linearGradient>
<linearGradient id="paint3_linear" x1="3654.96" y1="5312.81" x2="4382.87" y2="7164.68" gradientUnits="userSpaceOnUse">
<stop stop-color="#36078B"/>
<stop offset="1" stop-color="#16B1FF"/>
</linearGradient>
<linearGradient id="paint4_linear" x1="238.159" y1="382.408" x2="240.635" y2="606.298" gradientUnits="userSpaceOnUse">
<stop stop-color="#F70F47"/>
<stop offset="1" stop-color="#9E005D"/>
</linearGradient>
<linearGradient id="paint5_linear" x1="1640.6" y1="8475.83" x2="1855.73" y2="13645.1" gradientUnits="userSpaceOnUse">
<stop stop-color="#F70F47"/>
<stop offset="1" stop-color="#9E005D"/>
</linearGradient>
<linearGradient id="paint6_linear" x1="2206.92" y1="9440.99" x2="2413.52" y2="15282.4" gradientUnits="userSpaceOnUse">
<stop stop-color="#F70F47"/>
<stop offset="1" stop-color="#9E005D"/>
</linearGradient>
<linearGradient id="paint7_linear" x1="1585.27" y1="8848.72" x2="1886.81" y2="14255.8" gradientUnits="userSpaceOnUse">
<stop stop-color="#F70F47"/>
<stop offset="1" stop-color="#9E005D"/>
</linearGradient>
<linearGradient id="paint8_linear" x1="2299.5" y1="9387.87" x2="2521.19" y2="15198.1" gradientUnits="userSpaceOnUse">
<stop stop-color="#F70F47"/>
<stop offset="1" stop-color="#9E005D"/>
</linearGradient>
<linearGradient id="paint9_linear" x1="2241.48" y1="4514.25" x2="1857.1" y2="5588.25" gradientUnits="userSpaceOnUse">
<stop stop-color="#36078B"/>
<stop offset="1" stop-color="#16B1FF"/>
</linearGradient>
<linearGradient id="paint10_linear" x1="2418.97" y1="729.247" x2="2400.97" y2="1378.61" gradientUnits="userSpaceOnUse">
<stop stop-color="#2C27CE"/>
<stop offset="1" stop-color="#EF1D68"/>
</linearGradient>
<linearGradient id="paint11_linear" x1="1315.02" y1="508.802" x2="1294.84" y2="859.001" gradientUnits="userSpaceOnUse">
<stop stop-color="#2C27CE"/>
<stop offset="1" stop-color="#EF1D68"/>
</linearGradient>
</defs>
</svg>
