<svg xmlns="http://www.w3.org/2000/svg" viewBox="0 0 112.43 34.21"><defs><style>.cls-1{fill:#11025f;}.cls-2{fill:#3700bf;}.cls-3{fill:#4e01d4;}.cls-4{fill:#c6c9fa;}.cls-5{fill:#ff7171;}.cls-6{fill:#3f00c3;}.cls-7{fill:#b6b9ff;}.cls-8{fill:#9594f9;}</style></defs><title>Ресурс 3</title><g id="Слой_2" data-name="Слой 2"><g id="OBJECT"><polygon class="cls-1" points="95.28 7.67 97.33 3.24 104.97 2.39 99.62 6.47 97.84 8.6 95.28 7.67"/><polygon class="cls-1" points="102.75 8.37 104.79 3.93 112.43 6.21 107.08 7.16 105.3 9.3 102.75 8.37"/><path class="cls-2" d="M87,23.77C89.09,16.65,89.82,13,94.72,7.42c.65-.75,4.28-.19,4.85.62-5.42,7.58-6.49,23.81-9,25S69.53,32.88,60.08,33c1.13,0,7-7.52,7-8.28C67.28,17.14,82.71,21.93,87,23.77Z"/><path class="cls-3" d="M91.84,27.36C93.94,20.24,97.08,13.48,102,7.9c.66-.75,4.51-.59,5.07.22-5.42,7.58-6.6,24.24-9.1,25.44s-21.23.35-30.68.45c1.12,0-.32-8.56-.18-9.31C68.47,17.32,87.55,25.51,91.84,27.36Z"/><path class="cls-4" d="M40.5,19.49a2.37,2.37,0,0,1,1.71,2.63c-.59,5.39-.25,9.14-4,11-2.35,1.14-17.46.43-18.77.53A7.46,7.46,0,0,1,16.68,33a2.21,2.21,0,0,0-1.5,0,3.35,3.35,0,0,1-2.27.09c-.54-.29,2.25-2.28,3.59-2.55a11.84,11.84,0,0,1,3.83.59c.59.23,12.51-.3,14.27-1.12,2.3-1.08,2.1-4.05,3.95-7.58C40,19.64,40.5,19.49,40.5,19.49Z"/><path class="cls-5" d="M41.18,18.84c3.5,1.22-.39,8.31-.39,8.31-1.7.48-3.14-.44-5.34-1.24C36.25,24.17,38,17.75,41.18,18.84Z"/><path class="cls-5" d="M41.78,31c-3.28-1.85-6.31-13.06,2.94-14.54,6.46-1,9.28,2.7,14,4.45,6.68,2.47,10,.66,10,.66,1.5,6.12,2.51,9.75-1.08,12.56,0,0-2.73-.45-10.4-.1C52.26,34.22,47.76,34.35,41.78,31Z"/><path class="cls-4" d="M48.76,19.27a2.29,2.29,0,0,1,1.71,2.63c-1.12,5.84-1.47,8.68-5.9,11.5-2.21,1.41-15.6-.09-16.91,0a7.5,7.5,0,0,1-2.72-.63,2.15,2.15,0,0,0-1.5-.05,3.36,3.36,0,0,1-2.27.09c-.54-.29,2.25-2.28,3.59-2.55a11.84,11.84,0,0,1,3.83.59c.59.23,11.16.42,12.92-.41,2.3-1.07,2.48-5.31,4.33-8.84C47.27,18.87,48.76,19.27,48.76,19.27Z"/><path class="cls-5" d="M49.19,18.28c4.37,1.52.51,10.51.51,10.51-2.11.59-3.77-.29-6.51-1.29C44.19,25.34,45.25,16.91,49.19,18.28Z"/><path class="cls-4" d="M42.42,14.21a18.44,18.44,0,0,1,1.23,3.1c.54,1.61-2.71,4.9-2.92,1.89-.16-2.42-.62-2.48-.53-2.51Z"/><path class="cls-4" d="M43.06,12.27a1.87,1.87,0,0,0,0,.34A5.25,5.25,0,0,1,43,15,3,3,0,0,1,41.35,17a2.88,2.88,0,0,1-2.3-.13,5,5,0,0,1-1.8-1.51c-.77-1-1.67-2.22-1.35-3.41a11.34,11.34,0,0,1,2.52-2.79,1.87,1.87,0,0,1,2.19-.22l1.54.91a1.88,1.88,0,0,1,.92,1.62Z"/><path class="cls-6" d="M41.91,12.63c0-2.88,1.6-1.06,1,.62a2.36,2.36,0,0,1,.15,1.27,5.09,5.09,0,0,0,1.18-2.06c.5-1.33.12-6.35-3.45-6.5-4.89-3.39-7.59,5.05-8.48,5A3.44,3.44,0,0,0,36,13.07,8.89,8.89,0,0,0,39.25,12C40.53,10.86,41.91,13,41.91,12.63Z"/><path class="cls-7" d="M3.08,33.85H18.63a.55.55,0,0,0,.55-.55.55.55,0,0,0-.55-.55L15.86,18.08S.74,18,.44,18.08a.55.55,0,0,0-.43.65Z"/><path class="cls-8" d="M18.5,33.85H34.05a.55.55,0,0,0,.55-.55.55.55,0,0,0-.55-.55H19.4L16.51,18.51a.55.55,0,0,0-1.08.22Z"/><path class="cls-6" d="M40.6,6.32A7.92,7.92,0,0,1,43.11,1.6,6.33,6.33,0,0,1,48.18.07a5.22,5.22,0,0,1,4,3.29c.76,2.16-.11,4.69.84,6.77a11.17,11.17,0,0,0,2.73,3.1,4.76,4.76,0,0,1,1.78,3.61,3.44,3.44,0,0,1-3.46,2.83,6,6,0,0,1-4.27-2.13,5.39,5.39,0,0,1-1.64-4.37c.3-1.7,1.76-3,2-4.73a4.13,4.13,0,0,0-3-4.37c-1.88-.51-4.64,1.06-5.93,2.5"/></g></g></svg>