<svg width="31" height="11" viewBox="0 0 31 11" fill="none" xmlns="http://www.w3.org/2000/svg">
<path d="M14.0938 2.61719C14.0938 4.15885 13.0286 5.48177 10.8984 6.58594C9.47656 7.33073 7.78385 7.89583 5.82031 8.28125L4.86719 11H2.01562L4.86719 2.98438H7.69531L6.35156 6.74219C7.36198 6.51302 8.25781 6.15625 9.03906 5.67188C10.1276 4.98958 10.6927 4.19531 10.7344 3.28906C10.7604 2.70573 10.5651 2.32292 10.1484 2.14062C9.89844 2.03125 9.44792 1.97656 8.79688 1.97656H0.8125L2.03125 0.0078125H10.0781C11.2552 0.0078125 12.1536 0.153646 12.7734 0.445312C13.6536 0.856771 14.0938 1.58073 14.0938 2.61719ZM30.9062 0.0078125L25.375 10.0078C25.0052 10.6693 24.4401 11 23.6797 11H22.7031V4.05469L18.8594 10.0391C18.4479 10.6797 17.8411 11 17.0391 11H15.9297L16.75 1.97656H13.1172L14.3203 0.0078125H17.7734C18.1953 0.0078125 18.5573 0.104167 18.8594 0.296875C19.2656 0.5625 19.4688 0.976562 19.4688 1.53906C19.4688 1.6224 19.4635 1.70833 19.4531 1.79688L18.8906 7.09375L22.6172 1.17969C22.8828 0.757812 23.1198 0.471354 23.3281 0.320312C23.6198 0.111979 24.0182 0.0078125 24.5234 0.0078125H25.2891V6.9375L29.0391 0.0078125H30.9062Z" fill="#173A95"/>
</svg>
