<svg xmlns="http://www.w3.org/2000/svg" viewBox="0 0 62.82 115.41"><defs><style>.cls-1{isolation:isolate;}.cls-2{fill:#7474e2;}.cls-3{fill:#c6c9fa;}.cls-4{fill:#11025f;}.cls-5,.cls-7{fill:#f7c90b;}.cls-6{fill:#4e01d4;}.cls-7{opacity:0.47;mix-blend-mode:multiply;}.cls-8{fill:#b6b9ff;}.cls-9{fill:#3f00c3;}</style></defs><title>Ресурс 4</title><g class="cls-1"><g id="Слой_2" data-name="Слой 2"><g id="OBJECT"><path class="cls-2" d="M1,115.41a.85.85,0,0,1-.23,0,.94.94,0,0,1-.7-1.15l26.32-106a1,1,0,0,1,1.86.46l-26.33,106A.94.94,0,0,1,1,115.41Z"/><path class="cls-2" d="M21.94,115.41a.85.85,0,0,1-.23,0,.94.94,0,0,1-.7-1.15l26.32-106a1,1,0,0,1,1.86.46l-26.33,106A.94.94,0,0,1,21.94,115.41Z"/><path class="cls-2" d="M26.12,97.22,5.27,97.15V95.23l20.84.08Zm3.34-13.5L8.62,83.65V81.73l20.84.08Zm3.34-13.5L12,70.14V68.23l20.84.07Zm3.34-13.5L15.3,56.64V54.73l20.84.07Zm3.35-13.51-20.85-.07V41.23l20.84.07Zm3.34-13.5L22,29.64V27.73l20.85.07Zm3.34-13.5-20.84-.07V14.23l20.84.07Z"/><path class="cls-3" d="M32.24,23.05c1.28-.51,2-1.88,3.31-1.69.73.11.43,2.25-.69,3.41a13.24,13.24,0,0,1-2.34.91Z"/><polygon class="cls-4" points="22.59 66.39 26.43 66.09 26.19 67.4 31.04 69.77 21.53 69.1 22.59 66.39"/><polygon class="cls-4" points="10.27 79.62 14.1 79.31 13.86 80.63 18.71 83 9.2 82.32 10.27 79.62"/><path class="cls-5" d="M33.17,22s-5.33,2.37-8.23,2.37c-2,0-3.84-10.57-8-10.57-.41,2.57.23,4.87-.5,7.38,1.56,4,4,8.38,6.12,9,2.42.65,10.65-4.32,10.65-4.32Z"/><path class="cls-6" d="M23.3,34.85c-4,1.19-9.38,3.42-13.57,3.49,0,.93,0,1.85,0,2.55,0,4.44,5.33,22,5.33,22L9.81,79.82l4.41.32,7.37-16.47s-.36-9-1.69-18.39c1.73,1.49,8.16,6,9.05,6.86-.93,2.52-6.81,14.58-6.81,14.58L27,67s9.4-15,9.3-16.67C33.35,45,25.46,36.88,23.3,34.85Z"/><path class="cls-5" d="M20.84,27.37a1.07,1.07,0,0,1-1.45-1.28c1.26-4,.39-10.13-1.75-11.86-2.31-1.86-5.62-1.43-8.25-.76C2.34,18.26,6,40,8.34,46.74c9.37-2,13.56-3.21,18.84-8.35C26.08,34.88,20.47,30.48,20.84,27.37Z"/><path class="cls-7" d="M18.61,32.69C9.4,33,9.1,25.7,5.39,23.82c.15,1.23,0,7.89,3.08,12.74C9.91,38.8,24.9,38.49,27,38a22.81,22.81,0,0,0-3.2-4.76C22.1,33.14,20.38,32.63,18.61,32.69Z"/><path class="cls-3" d="M13.56,10.75A5.16,5.16,0,0,1,13.23,13C14,14.09,15.49,15.14,16,15s-.1-1-.1-1.07a9.57,9.57,0,0,1,.49-2.79"/><rect class="cls-8" x="29.52" y="3.59" width="30.89" height="34.5" rx="2.7" transform="translate(85.45 49.43) rotate(-169.62)"/><path class="cls-3" d="M19.26,6.12c0,3-1.84,7.68-4.87,5.54a8.14,8.14,0,0,1-3.3-5.57S16.4-1.16,19.26,6.12Z"/><path class="cls-3" d="M27.91,33.42c1.38.09,2.53-.73,3.33-.28S34,36,30.18,35.9s-3.16,0-3.16,0Z"/><path class="cls-5" d="M11.32,13.75c-.91-1.19-3.78-.07-4.75,1.29-3.68,5.19.82,16.83,1.57,18.54,1.64,3.73,19.75,2.9,19.75,2.9l1-3.3s-14-1.8-15.67-3C12.58,29.68,14.56,18,11.32,13.75Z"/><path class="cls-9" d="M22.52,3.18a1.33,1.33,0,0,0-1.92-.11,1.08,1.08,0,0,0-.13-1.45,1.1,1.1,0,0,0-1.46,0c.15-.48-.34-1-.84-1a2.59,2.59,0,0,0-1.4.48,1.24,1.24,0,0,0-.9-.9,1.25,1.25,0,0,0-1.2.41A.66.66,0,0,0,14.13,0a1.51,1.51,0,0,0-.88.14,2.59,2.59,0,0,0-1.28,1,1.34,1.34,0,0,0,0,1.54.63.63,0,0,0-.83-.11,1,1,0,0,0-.41.79,3.13,3.13,0,0,0,.13.91.81.81,0,0,0-1.11-.19,1.23,1.23,0,0,0-.47,1.11,2.92,2.92,0,0,0,.44,1.17,12,12,0,0,1,.66,1.08c-.89,2.18,2.58,3.34,3.21,3.65.47-.24.3-1.81.24-1.89-1.14-1.68.81-3.22.78-.56,0,0,.17.78.56-.61,0,0,.32-1.54,3.25-1.17h.14a1.17,1.17,0,0,0,.34.16.94.94,0,0,0,.81-.26l.37-.11a2.18,2.18,0,0,0,1.06.25,1.39,1.39,0,0,0,1.11-.63,1,1,0,0,0-.18-1.21A1.31,1.31,0,0,0,22.52,3.18Z"/></g></g></g></svg>