<svg width="442" height="458" viewBox="0 0 442 458" fill="none" xmlns="http://www.w3.org/2000/svg">
<g style="mix-blend-mode:multiply">
<path d="M441.702 450.069C441.702 452.735 414.957 454.901 381.977 454.901C348.996 454.901 322.286 452.735 322.286 450.069C322.286 447.404 348.996 445.238 381.977 445.238C414.957 445.238 441.702 447.404 441.702 450.069Z" fill="#D8D8D8"/>
</g>
<path d="M389.113 192.988C392.993 195.404 396.665 194.529 406.92 193.78C421.678 192.738 425.107 191.364 433.942 186.824C439.692 183.866 432.59 169.163 424.241 170.538C417.14 171.704 394.032 185.907 389.598 186.574C386.896 187.032 385.961 191.072 389.113 192.988Z" fill="url(#paint0_linear)"/>
<path d="M435.778 184.408C437.302 180.742 439.589 171.912 440.385 149.461C440.77 141.532 440.62 133.578 439.935 125.677C439.346 118.18 433.353 115.181 430.443 116.972C425.697 119.846 420.916 127.593 421.02 131.509C421.643 153.835 423.272 170.954 422.613 176.369C421.678 184.408 434.011 188.865 435.778 184.408Z" fill="url(#paint1_linear)"/>
<path d="M422.856 434.741C422.497 436.66 422.265 438.61 422.163 440.573C421.851 442.905 420.015 443.78 418.941 445.696C417.867 447.612 415.892 450.861 423.168 451.027C430.443 451.194 435.535 451.027 434.219 445.821C433.275 442.955 432.77 439.906 432.729 436.824C432.82 436.092 432.787 435.347 432.632 434.631C432.477 433.915 432.204 433.244 431.828 432.659C430.962 431.451 423.999 429.66 422.856 434.741Z" fill="#4E11F4"/>
<path d="M343.453 438.99C341.47 441.975 338.864 444.274 335.901 445.654C331.883 447.737 323.326 448.695 328.072 450.528C332.379 451.736 336.86 451.736 341.167 450.528C344.095 450.067 347.048 449.872 350.001 449.944C354.366 449.944 354.401 449.57 353.812 443.863C353.015 436.241 345.428 434.575 343.453 438.99Z" fill="#4E11F4"/>
<path d="M431.967 84.6494C429.715 94.9377 429.161 97.1453 424.796 100.769C420.343 103.648 415.17 104.478 410.246 103.102C405.811 102.227 403.698 95.2293 403.317 90.6058C402.736 82.1702 403.537 73.6796 405.673 65.6141C406.856 62.2794 408.889 59.4822 411.479 57.6258C414.069 55.7694 417.082 54.9495 420.084 55.2842C426.251 56.4088 437.441 59.4495 431.967 84.6494Z" fill="#FFAF84"/>
<path d="M375.879 166.622C378.79 164.456 384.679 158.5 395.384 140.131C399.312 133.7 402.788 126.887 405.777 119.763C406.378 118.586 406.751 117.261 406.867 115.887C406.983 114.513 406.839 113.125 406.446 111.827C406.053 110.529 405.421 109.355 404.597 108.392C403.773 107.429 402.779 106.703 401.689 106.267C396.388 105.642 388.905 109.058 387.208 112.474C377.75 131.675 371.48 147.17 368.5 151.336C363.893 157.417 372.415 169.121 375.879 166.622Z" fill="url(#paint2_linear)"/>
<path d="M425.108 102.269C424.865 105.934 424.553 110.141 424.138 113.973C423.871 116.46 422.844 118.739 421.255 120.365C419.666 121.99 417.631 122.844 415.546 122.762H415.061C411.32 122.054 407.439 117.097 408.34 112.64C408.964 109.724 409.414 106.767 409.761 104.31C410.088 101.885 411.029 99.6413 412.454 97.8825C413.88 96.1237 415.721 94.9355 417.729 94.4795C418.658 94.2692 419.616 94.316 420.528 94.6164C421.441 94.9168 422.285 95.463 422.996 96.2135C423.707 96.964 424.266 97.8992 424.632 98.9483C424.998 99.9974 425.161 101.133 425.108 102.269Z" fill="#FFAF84"/>
<path d="M436.679 150.336C427.138 173.646 421.109 198.804 418.872 224.644L366.18 214.689C366.18 214.689 374.251 155.459 382.011 123.636C382.947 119.729 384.674 116.161 387.038 113.253C389.402 110.345 392.329 108.188 395.557 106.975C400.305 105.5 405.244 105.133 410.107 105.892L419.842 107.725C423.319 108.314 426.711 109.477 429.923 111.182C443.607 119.346 442.845 135.091 436.679 150.336Z" fill="url(#paint3_linear)"/>
<path d="M413.571 263.548C413.571 263.548 419.876 251.052 418.872 224.811L366.179 214.689C363.289 227.329 360.976 240.15 359.251 253.093L413.571 263.548Z" fill="url(#paint4_linear)"/>
<path d="M394.726 351.686C387.624 331.984 404.599 324.819 412.22 338.565C422.96 358.058 431.794 420.621 433.249 434.116C433.457 435.907 434.011 438.032 433.249 438.781C431.626 440.042 429.77 440.8 427.844 440.989C425.87 441.281 423.93 441.697 423.341 438.823C419.357 419.496 401.585 370.804 394.726 351.686Z" fill="url(#paint5_linear)"/>
<path d="M387.069 261.216C388.559 235.224 399.61 216.939 411.735 227.893C413.95 230.232 415.659 233.182 416.716 236.491C417.772 239.8 418.143 243.367 417.798 246.887C417.798 253.76 412.671 324.236 412.428 337.107C411.978 366.264 394.31 354.934 393.34 346.645C390.811 325.777 386.273 275.377 387.069 261.216Z" fill="url(#paint6_linear)"/>
<path d="M352.911 441.656C355.44 411.249 369.505 358.85 364.828 333.358C361.849 317.197 346.156 315.406 345.636 334.858C345.116 355.684 347.818 396.337 343.592 436.241C343.176 440.281 352.565 445.196 352.911 441.656Z" fill="url(#paint7_linear)"/>
<path d="M363.547 339.648C360.429 347.104 341.444 352.81 347.022 324.611C349.516 312.115 360.879 242.513 362.161 235.849C363.443 229.185 365.625 219.521 368.708 218.813C383.57 215.314 394.587 238.015 387.589 262.632C382.808 279.126 369.956 324.153 363.547 339.648Z" fill="url(#paint8_linear)"/>
<path d="M406.435 77.5685C407.197 81.4005 406.435 84.941 404.772 85.3992C403.109 85.8574 401.1 83.1499 400.338 79.2762C399.576 75.4025 400.338 71.9037 402.035 71.4455C403.733 70.9874 405.673 73.6948 406.435 77.5685Z" fill="#FFAF84"/>
<path d="M429.126 81.8587C427.429 85.2326 427.256 88.8564 428.711 89.9394C430.166 91.0224 432.798 89.1063 434.496 85.7741C436.194 82.4418 436.367 78.7764 434.912 77.6934C433.457 76.6104 430.858 78.4431 429.126 81.8587Z" fill="#FFAF84"/>
<path d="M331.744 149.336C334.446 153.501 336.629 155.876 346.433 159.541C355.404 163.283 364.703 165.771 374.147 166.955C380.383 167.538 379.586 149.586 371.514 146.629C364.586 144.088 338.776 145.379 334.619 143.838C331.779 142.755 329.561 146.004 331.744 149.336Z" fill="url(#paint9_linear)"/>
<path d="M335.381 143.63C332.852 142.089 311.131 133.05 310.854 138.84C310.612 145.296 319.446 149.295 322.39 150.294C328.106 152.294 332.783 153.626 335.174 150.669C336.836 148.545 337.772 145.129 335.381 143.63Z" fill="#FFAF84"/>
<path d="M334.065 142.172C333.06 141.172 327.136 135.174 326.132 136.424C324.573 138.34 328.314 142.505 330.739 145.254C332.09 146.754 334.723 147.712 335.589 146.254C336.455 144.796 335.659 143.796 334.065 142.172Z" fill="#FFAF84"/>
<path d="M413.641 58.908C408.133 61.6571 406.539 64.6145 405.708 72.1536C404.876 79.6928 405.708 92.98 416.967 98.0616C428.226 103.143 432.591 89.7311 434.531 80.5675C436.471 71.4039 436.956 63.9064 431.344 61.2406C423.029 57.117 417.001 57.2836 413.641 58.908Z" fill="url(#paint10_linear)"/>
<path d="M434.323 62.8234C434.704 56.9087 427.394 52.7851 426.528 50.0776C426.528 50.0776 426.112 54.2429 427.463 55.2426C423.109 53.1479 418.961 50.4797 415.096 47.2869C415.096 47.2869 416.551 51.4522 418.318 52.4518C413.843 51.0027 409.484 49.0791 405.292 46.7037C406.892 49.6162 408.763 52.2994 410.869 54.7011C406.366 54.7769 401.887 53.9028 397.636 52.1186C397.636 52.1186 401.585 65.4059 409.172 67.0303C416.759 68.6548 433.595 73.5698 434.323 62.8234Z" fill="url(#paint11_linear)"/>
<path d="M0 452.36C0 455.068 43.5119 457.317 97.209 457.317C150.906 457.317 194.418 455.068 194.418 452.36C194.418 449.653 150.906 447.404 97.209 447.404C43.5119 447.404 0 449.611 0 452.36Z" fill="#D8D8D8"/>
<path d="M53.6971 27.7517C54.3207 24.3362 60.2446 -2.32158 64.09 1.30221C67.9354 4.926 68.0394 16.5055 67.5544 20.2542C67.2208 23.1192 66.1655 25.7926 64.5305 27.9149C62.8954 30.0372 60.759 31.5065 58.4086 32.1252C55.9489 32.3335 53.1081 31.0006 53.6971 27.7517Z" fill="#FFAF84"/>
<path d="M62.3579 27.127C64.1593 31.9587 62.3579 32.8334 61.4918 46.4122C60.9979 57.9825 59.2868 69.4309 56.3992 80.4841C54.286 87.6483 41.8837 78.7347 43.027 68.4464C44.0316 59.741 54.1128 30.959 56.0875 26.2523C56.4302 25.5655 56.9304 25.012 57.5281 24.6583C58.1258 24.3045 58.7956 24.1655 59.4573 24.2578C60.1191 24.3501 60.7446 24.6699 61.2591 25.1787C61.7735 25.6876 62.155 26.364 62.3579 27.127Z" fill="url(#paint12_linear)"/>
<path d="M57.6118 73.6947C56.9536 77.86 54.3207 86.7737 43.512 105.809C39.7643 112.613 35.5584 119.035 30.9365 125.011C26.6061 130.717 20.1624 128.801 18.6728 125.011C16.2477 119.138 16.2824 109.225 18.3956 106.059C30.3475 88.1899 40.4287 75.3608 42.6459 70.4041C45.9716 63.3232 58.3739 68.7797 57.6118 73.6947Z" fill="url(#paint13_linear)"/>
<path d="M21.6174 436.657C21.9956 438.628 22.2275 440.635 22.3103 442.655C22.6221 445.029 24.5274 445.904 25.7746 447.903C27.0218 449.903 28.8925 453.193 21.4442 453.36C13.9959 453.527 8.73016 453.36 10.0812 448.028C11.0635 445.102 11.5806 441.979 11.6055 438.823C11.4858 438.03 11.5073 437.215 11.6686 436.433C11.8298 435.65 12.1271 434.917 12.5409 434.283C13.3031 433.283 20.4396 431.451 21.6174 436.657Z" fill="#541968"/>
<path d="M101.643 330.193C103.812 333.117 106.585 335.301 109.681 336.524C113.907 338.44 122.706 338.94 117.926 341.106C113.564 342.645 108.97 342.987 104.484 342.105C101.405 342.012 98.3235 342.207 95.269 342.688C90.8001 342.688 90.7654 342.022 91.1119 336.149C91.8047 327.818 99.4609 325.694 101.643 330.193Z" fill="#541968"/>
<path d="M32.0797 67.5301C32.9804 78.4431 33.2576 80.859 37.2069 85.3158C41.3492 89.0631 46.4843 90.8694 51.6532 90.3975C56.2954 90.3975 59.344 83.6914 60.3833 79.0679C62.0581 70.6653 62.3639 61.9522 61.284 53.4098C60.545 49.7727 58.8595 46.5142 56.4729 44.1092C54.0862 41.7042 51.1233 40.2783 48.0156 40.0392C41.6413 40.0392 29.8625 40.914 32.0797 67.5301Z" fill="#FFAF84"/>
<path d="M36.6873 86.732C36.4448 90.5224 36.2022 94.8543 36.0983 98.8113C36.0378 101.392 36.7771 103.909 38.1726 105.871C39.5682 107.834 41.5205 109.103 43.6505 109.433H44.1702C48.0502 109.433 52.6578 105.267 52.3113 100.477C52.1035 97.3951 52.0342 94.3128 51.9996 91.6054C51.9513 89.0702 51.2626 86.6127 50.025 84.5594C48.7874 82.506 47.0596 80.9539 45.0709 80.1093C44.155 79.7555 43.1848 79.6529 42.2315 79.8089C41.2782 79.9648 40.3661 80.3754 39.5621 81.0106C38.7581 81.6458 38.0825 82.4893 37.5851 83.4794C37.0876 84.4694 36.7808 85.5808 36.6873 86.732Z" fill="#FFAF84"/>
<path d="M18.5688 133.3C25.1609 158.764 27.9523 185.431 26.8139 212.065H81.4117C81.4117 212.065 81.0999 150.419 77.4278 116.68C76.9761 112.556 75.6834 108.629 73.6646 105.25C71.6459 101.871 68.9638 99.1437 65.8569 97.3119C61.2476 94.8997 56.297 93.5707 51.2721 93.3965H41.2948C37.6923 93.3332 34.1004 93.8801 30.6247 95.021C15.5895 100.519 14.3423 116.639 18.5688 133.3Z" fill="url(#paint14_linear)"/>
<path d="M27.0218 252.344C27.0218 252.344 22.3103 238.556 26.8139 212.065H81.4117C81.4117 212.065 81.4117 230.976 81.4117 252.344H27.0218Z" fill="url(#paint15_linear)"/>
<path d="M37.8305 338.523C42.2302 317.072 23.9732 313.532 18.2571 328.818C10.1505 350.727 10.7741 420.871 11.3284 434.824C11.3284 436.657 11.1205 438.99 11.8827 439.573C13.7045 440.516 15.692 440.902 17.6681 440.697C19.7121 440.697 21.7214 440.697 21.9292 437.574C23.211 417.164 33.5694 359.35 37.8305 338.523Z" fill="url(#paint16_linear)"/>
<path d="M54.2168 255.218C56.1221 228.601 47.2881 207.9 33.4308 216.689C30.8782 218.634 28.7565 221.296 27.2479 224.444C25.7394 227.593 24.889 231.135 24.7699 234.766C23.9731 241.722 19.7467 314.156 18.257 327.277C14.7927 356.767 34.2622 348.811 36.3754 340.647C41.8491 320.029 53.1428 269.754 54.2168 255.218Z" fill="url(#paint17_linear)"/>
<path d="M91.8047 330.484C101.124 301.327 108.33 245.304 122.36 224.603C131.298 211.44 146.368 218.48 139.37 236.599C131.748 256.009 113.665 291.789 102.198 330.776C101.124 334.608 90.6268 333.9 91.8047 330.484Z" fill="url(#paint18_linear)"/>
<path d="M134.277 243.097C141.206 240.806 148.758 213.94 123.884 215.314C112.902 215.856 74.2405 215.564 68.4551 215.856C62.6697 216.147 54.0435 216.98 52.9003 220.438C47.0456 237.807 63.9168 255.592 85.95 251.885C100.777 249.428 120.074 247.887 134.277 243.097Z" fill="url(#paint19_linear)"/>
<path d="M58.8936 65.2392C57.6118 69.0296 57.9236 72.7367 59.5518 73.5698C61.1801 74.4028 63.5705 71.987 64.8523 68.2382C66.1341 64.4895 65.8223 60.7407 64.194 59.9077C62.5658 59.0746 60.1754 61.4905 58.8936 65.2392Z" fill="#FFAF84"/>
<path d="M35.3015 65.2393C36.5833 69.0296 36.3062 72.7367 34.6433 73.5698C32.9804 74.4028 30.6593 71.9453 29.4468 68.1966C28.2343 64.4479 28.4422 60.6991 30.105 59.8661C31.7679 59.033 34.0197 61.4905 35.3015 65.2393Z" fill="#FFAF84"/>
<path d="M34.8511 46.0789C38.3155 52.4101 55.4292 52.9933 61.0068 50.6607C66.5844 48.3282 66.2033 35.4158 58.2353 34.4995C53.7317 34.4995 56.9882 35.7907 53.3506 37.5818C51.5146 38.6231 31.1097 39.3312 34.8511 46.0789Z" fill="url(#paint20_linear)"/>
<path d="M143.215 88.065C145.952 86.8987 167.985 79.1929 167.466 85.1493C166.946 91.1056 158.666 96.937 155.756 98.4781C153.544 99.6245 151.092 99.9276 148.732 99.3467C146.372 98.7658 144.217 97.3287 142.557 95.2292C141.102 92.7717 140.582 89.1479 143.215 88.065Z" fill="#FFAF84"/>
<path d="M144.151 86.3988C145.086 85.2742 150.802 78.5681 151.911 79.776C153.608 81.6087 150.075 86.1905 147.754 89.2729C146.472 90.939 143.839 92.1469 142.834 90.7307C141.83 89.3145 142.626 88.2315 144.151 86.3988Z" fill="#FFAF84"/>
<path d="M148.135 96.6455C145.64 101.019 144.185 99.7694 134 105.767C125.507 111.264 116.476 115.462 107.117 118.263C100.916 119.804 100.812 102.435 108.745 98.3116C115.431 94.8127 141.067 90.3142 145.502 89.981C146.133 90.011 146.746 90.2481 147.274 90.6667C147.801 91.0853 148.223 91.6695 148.494 92.3559C148.766 93.0424 148.875 93.8049 148.812 94.561C148.749 95.3171 148.514 96.038 148.135 96.6455Z" fill="url(#paint21_linear)"/>
<path d="M113.249 116.264C110.062 117.972 102.44 120.429 83.2479 120.429C77.6692 120.736 72.0788 120.415 66.5498 119.471C63.9125 118.988 61.4678 117.522 59.5598 115.281C57.6519 113.039 56.3768 110.134 55.9143 106.975C55.9143 100.269 58.9283 95.2709 62.2887 95.5625C81.3079 97.2702 102.267 100.311 106.944 99.7278C113.734 98.8947 117.06 114.265 113.249 116.264Z" fill="url(#paint22_linear)"/>
<path d="M54.0435 44.9959C59.3093 48.7863 60.5218 52.1186 60.3832 59.9493C60.2447 67.78 57.4386 81.0673 45.4866 84.0246C33.5347 86.982 30.7286 72.7367 30.0011 62.9066C29.2736 53.0766 29.7586 45.7457 35.7865 43.9546C44.7591 41.3305 50.8563 42.7883 54.0435 44.9959Z" fill="url(#paint23_linear)"/>
<g clip-path="url(#clip0)">
<path d="M125.05 342H79.9503C75.6003 341.995 71.3718 343.904 67.9272 347.43C64.4827 350.956 62.0166 355.898 60.9153 361.483L43 451.962H162L144.085 361.483C142.983 355.898 140.517 350.956 137.073 347.43C133.628 343.904 129.4 341.995 125.05 342Z" fill="url(#paint24_linear)"/>
</g>
<defs>
<linearGradient id="paint0_linear" x1="395.134" y1="133.959" x2="439.377" y2="234.972" gradientUnits="userSpaceOnUse">
<stop stop-color="#36078B"/>
<stop offset="1" stop-color="#16B1FF"/>
</linearGradient>
<linearGradient id="paint1_linear" x1="3727.22" y1="2301.74" x2="4594.82" y2="2737.75" gradientUnits="userSpaceOnUse">
<stop stop-color="#36078B"/>
<stop offset="1" stop-color="#16B1FF"/>
</linearGradient>
<linearGradient id="paint2_linear" x1="6714.51" y1="1539.85" x2="6714.51" y2="3103.57" gradientUnits="userSpaceOnUse">
<stop stop-color="#36078B"/>
<stop offset="1" stop-color="#16B1FF"/>
</linearGradient>
<linearGradient id="paint3_linear" x1="12769.9" y1="2915.95" x2="12769.9" y2="5981.34" gradientUnits="userSpaceOnUse">
<stop stop-color="#36078B"/>
<stop offset="1" stop-color="#16B1FF"/>
</linearGradient>
<linearGradient id="paint4_linear" x1="389.464" y1="179.021" x2="388.179" y2="440.639" gradientUnits="userSpaceOnUse">
<stop stop-color="#0000FF"/>
<stop offset="1" stop-color="#9E005D"/>
</linearGradient>
<linearGradient id="paint5_linear" x1="8075.69" y1="4274.6" x2="11404.4" y2="9265.06" gradientUnits="userSpaceOnUse">
<stop stop-color="#0000FF"/>
<stop offset="1" stop-color="#9E005D"/>
</linearGradient>
<linearGradient id="paint6_linear" x1="5513.84" y1="6217.12" x2="9356.31" y2="11978" gradientUnits="userSpaceOnUse">
<stop stop-color="#0000FF"/>
<stop offset="1" stop-color="#9E005D"/>
</linearGradient>
<linearGradient id="paint7_linear" x1="3377.75" y1="6488.66" x2="6925.76" y2="11254.5" gradientUnits="userSpaceOnUse">
<stop stop-color="#0000FF"/>
<stop offset="1" stop-color="#9E005D"/>
</linearGradient>
<linearGradient id="paint8_linear" x1="7162.09" y1="6226.25" x2="10217.9" y2="12898.2" gradientUnits="userSpaceOnUse">
<stop stop-color="#0000FF"/>
<stop offset="1" stop-color="#9E005D"/>
</linearGradient>
<linearGradient id="paint9_linear" x1="4025.65" y1="7363.9" x2="3569.51" y2="7627.09" gradientUnits="userSpaceOnUse">
<stop stop-color="#36078B"/>
<stop offset="1" stop-color="#16B1FF"/>
</linearGradient>
<linearGradient id="paint10_linear" x1="5256.16" y1="565.873" x2="5698.52" y2="946.486" gradientUnits="userSpaceOnUse">
<stop stop-color="#0000FF"/>
<stop offset="1" stop-color="#9E005D"/>
</linearGradient>
<linearGradient id="paint11_linear" x1="6289.33" y1="310.806" x2="6493.76" y2="695.301" gradientUnits="userSpaceOnUse">
<stop stop-color="#0000FF"/>
<stop offset="1" stop-color="#9E005D"/>
</linearGradient>
<linearGradient id="paint12_linear" x1="70.8264" y1="59.7481" x2="-12.4704" y2="55.8633" gradientUnits="userSpaceOnUse">
<stop stop-color="#36078B"/>
<stop offset="1" stop-color="#168D68"/>
</linearGradient>
<linearGradient id="paint13_linear" x1="-5988.02" y1="8232.37" x2="-7660.13" y2="8107.21" gradientUnits="userSpaceOnUse">
<stop stop-color="#36078B"/>
<stop offset="1" stop-color="#168D68"/>
</linearGradient>
<linearGradient id="paint14_linear" x1="-365.743" y1="4445.16" x2="-365.743" y2="10122.5" gradientUnits="userSpaceOnUse">
<stop stop-color="#36078B"/>
<stop offset="1" stop-color="#168D68"/>
</linearGradient>
<linearGradient id="paint15_linear" x1="-276.15" y1="5656.87" x2="-276.15" y2="2917.55" gradientUnits="userSpaceOnUse">
<stop stop-color="#36078B"/>
<stop offset="1" stop-color="#16B1FF"/>
</linearGradient>
<linearGradient id="paint16_linear" x1="-420.696" y1="16717.3" x2="-420.696" y2="8467.43" gradientUnits="userSpaceOnUse">
<stop stop-color="#36078B"/>
<stop offset="1" stop-color="#16B1FF"/>
</linearGradient>
<linearGradient id="paint17_linear" x1="-402.239" y1="18263.7" x2="-402.239" y2="9183.11" gradientUnits="userSpaceOnUse">
<stop stop-color="#36078B"/>
<stop offset="1" stop-color="#16B1FF"/>
</linearGradient>
<linearGradient id="paint18_linear" x1="-11461.8" y1="44494.5" x2="-8090.39" y2="37705.7" gradientUnits="userSpaceOnUse">
<stop stop-color="#36078B"/>
<stop offset="1" stop-color="#16B1FF"/>
</linearGradient>
<linearGradient id="paint19_linear" x1="-14668.7" y1="-76733.5" x2="-16364.3" y2="-76790" gradientUnits="userSpaceOnUse">
<stop stop-color="#16B1FF"/>
<stop offset="1" stop-color="#16B1FF"/>
</linearGradient>
<linearGradient id="paint20_linear" x1="-75.3144" y1="-61.4269" x2="-97.0993" y2="-73.9756" gradientUnits="userSpaceOnUse">
<stop stop-color="#2C27CE"/>
<stop offset="0.65" stop-color="#EF1D68"/>
<stop offset="1" stop-color="#EFBA92"/>
</linearGradient>
<linearGradient id="paint21_linear" x1="4084.44" y1="829.247" x2="4236.19" y2="1343.41" gradientUnits="userSpaceOnUse">
<stop stop-color="#36078B"/>
<stop offset="1" stop-color="#168D68"/>
</linearGradient>
<linearGradient id="paint22_linear" x1="4502.87" y1="829.797" x2="4641.94" y2="1495.27" gradientUnits="userSpaceOnUse">
<stop stop-color="#36078B"/>
<stop offset="1" stop-color="#168D68"/>
</linearGradient>
<linearGradient id="paint23_linear" x1="2051.76" y1="867.852" x2="1784.95" y2="1342.16" gradientUnits="userSpaceOnUse">
<stop stop-color="#2C27CE"/>
<stop offset="0.65" stop-color="#EF1D68"/>
<stop offset="1" stop-color="#EFBA92"/>
</linearGradient>
<linearGradient id="paint24_linear" x1="102.5" y1="270.962" x2="102.5" y2="415.391" gradientUnits="userSpaceOnUse">
<stop stop-color="#F70F47"/>
<stop offset="1" stop-color="#FFB41D"/>
</linearGradient>
<clipPath id="clip0">
<rect width="119" height="109.962" fill="white" transform="translate(43 342)"/>
</clipPath>
</defs>
</svg>
