<svg width="328" height="328" viewBox="0 0 328 328" fill="none" xmlns="http://www.w3.org/2000/svg">
<g clip-path="url(#clip0)">
<path d="M301.46 172.006C301.353 173.526 301.213 175.046 301.04 176.566C298.043 203.672 287.098 229.286 269.58 250.186C269.15 250.706 268.71 251.186 268.27 251.736C260.024 261.302 250.513 269.699 240 276.696C236.453 279.056 232.82 281.236 229.1 283.236C199.492 299.132 165.124 303.751 132.37 296.236H132.31L131.38 296.026C109.761 290.913 89.6958 280.656 72.89 266.126C70.49 264.066 68.18 261.926 65.96 259.736C46.1989 240.161 32.7853 215.093 27.4634 187.792C22.1416 160.491 25.1579 132.22 36.12 106.656C39.5376 98.6895 43.71 91.0681 48.58 83.8963C51.6534 79.3691 54.9926 75.0282 58.58 70.8963C63.8798 64.6911 69.7267 58.9747 76.05 53.8163C78.57 51.7563 81.1533 49.7997 83.8 47.9463C92.7651 41.6431 102.459 36.4454 112.67 32.4663C133.17 24.3797 155.305 21.305 177.233 23.4979C199.161 25.6908 220.248 33.088 238.741 45.0741C257.233 57.0602 272.597 73.2887 283.553 92.4096C294.509 111.531 300.741 132.991 301.73 155.006C301.73 155.006 301.73 155.006 301.73 155.066C301.73 155.586 301.78 156.116 301.79 156.636C301.968 161.762 301.858 166.893 301.46 172.006Z" fill="#FA4A26"/>
<path d="M204.45 98.7963C204.45 98.7963 168.37 101.156 140.14 125.076C111.91 148.996 62.88 152.916 62.88 152.916C62.88 152.916 87.59 145.856 93.08 139.196C93.08 139.196 55.92 155.366 25.08 153.546C25.9697 137.392 29.6931 121.521 36.08 106.656C47.79 98.3763 70.2 85.4163 99 82.7663C99 82.7663 91.1 86.6463 87.57 92.5263C87.86 92.3763 106.64 83.1663 138.16 80.5963C169.92 78.0163 203.65 61.8363 211.1 47.5963C211.1 47.5963 210.7 56.8563 201.69 65.4863C202.06 65.3763 225.69 58.6063 240.69 46.4863C253.307 54.9869 264.453 65.488 273.69 77.5763C259.94 88.9763 231.93 106.466 186.22 110.576C186.22 110.566 195.82 109.006 204.45 98.7963Z" fill="#E42F28"/>
<path d="M212.39 31.7763C202.66 39.6963 185.06 55.4763 163.39 63.9763C135.39 74.9763 104.16 71.7163 104.16 71.7163L111.22 69.6263C89.5037 69.3469 68.0325 74.2383 48.58 83.8963C51.6534 79.369 54.9926 75.0281 58.58 70.8963C63.8798 64.691 69.7267 58.9747 76.05 53.8163C78.57 51.7563 81.1533 49.7996 83.8 47.9463C97.658 45.2647 111.745 43.9451 125.86 44.0063C144.95 44.0063 163.4 36.6863 163.4 36.6863C159.383 37.0685 155.33 36.6261 151.49 35.3863C162.922 33.3068 174.001 29.6203 184.4 24.4363C193.962 25.8939 203.343 28.3541 212.39 31.7763Z" fill="#E42F28"/>
<path d="M242.11 176.186C242.11 176.186 203.27 202.066 149.4 206.246C149.4 206.246 165.2 197.626 167.4 194.486C160.62 197.746 149.18 204.316 126.77 208.206C76.07 217.006 55 217.796 35.61 214.796C30.5399 202.693 27.2264 189.927 25.77 176.886C42.42 178.296 72.24 179.496 96.86 173.346C133.19 164.266 171.86 140.736 171.86 140.736C171.86 140.736 171.39 149.626 158.58 156.946C158.58 156.946 265.58 140.126 287.78 100.316C296.144 117.388 300.909 135.996 301.78 154.986C301.78 154.986 301.78 154.986 301.78 155.046C301.78 155.566 301.83 156.096 301.84 156.616C292.05 165.746 270.93 180.106 231 186.006C231 186.006 244.72 178.696 242.11 176.186Z" fill="#E42F28"/>
<path d="M301 176.606C298.003 203.712 287.058 229.326 269.54 250.226C254.06 257.996 236.77 264.316 223.23 266.636C223.23 266.636 237.74 261.156 244.8 254.096C244.5 254.266 225.41 265.566 202.45 269.816C179.31 274.096 148.33 268.996 127.16 276.446C127.16 276.446 140.9 277.446 148.74 279.386C140.875 279.69 133.056 280.742 125.39 282.526C119.69 283.856 111.24 284.296 100.86 284.946C90.8004 279.856 81.3979 273.559 72.86 266.196C70.46 264.136 68.15 261.996 65.93 259.806C58.7972 252.761 52.45 244.962 47 236.546C57.08 234.746 74.73 232.726 92.94 236.056C120.85 241.156 163.33 221.936 163.33 221.936C159.448 226.602 154.693 230.464 149.33 233.306C149.33 233.306 176.54 230.036 202.03 216.376C222.73 205.326 272.57 198.516 301 176.606Z" fill="#E42F28"/>
<path d="M229.14 283.236C199.532 299.132 165.164 303.751 132.41 296.236H132.35L131.42 296.026C136.34 293.196 150.21 286.426 165.08 290.026C179.59 293.496 209.26 289.946 229.14 283.236Z" fill="#E42F28"/>
<path d="M119.12 111.216C119.118 117.317 117.363 123.289 114.065 128.421C110.766 133.553 106.063 137.629 100.514 140.165C94.9656 142.7 88.8053 143.589 82.7663 142.724C76.7273 141.859 71.0639 139.277 66.45 135.286C63.1402 132.424 60.4559 128.91 58.5648 124.964C56.6736 121.018 55.6161 116.724 55.4583 112.351C55.3005 107.978 56.0458 103.62 57.6477 99.5478C59.2495 95.4757 61.6735 91.7775 64.7684 88.684C67.8632 85.5905 71.5625 83.1681 75.6353 81.5681C79.7082 79.9681 84.0671 79.2248 88.44 79.3845C92.8129 79.5442 97.1059 80.6036 101.051 82.4966C104.996 84.3895 108.509 87.0753 111.37 90.3864C116.375 96.1711 119.127 103.567 119.12 111.216Z" fill="#BD1F28"/>
<path d="M119.12 111.216C119.118 117.317 117.363 123.288 114.065 128.42C110.766 133.552 106.063 137.629 100.514 140.165C94.9656 142.7 88.8053 143.589 82.7664 142.724C76.7274 141.859 71.064 139.277 66.45 135.286C61.1903 129.199 58.4299 121.346 58.7236 113.307C59.0173 105.268 62.3433 97.6374 68.0331 91.9501C73.7229 86.2629 81.3546 82.9402 89.3942 82.6501C97.4337 82.36 105.285 85.124 111.37 90.3863C116.375 96.1711 119.127 103.567 119.12 111.216Z" fill="#DC2E28"/>
<path d="M230.32 70.7664C230.319 74.6886 229.192 78.5281 227.072 81.8279C224.952 85.1278 221.928 87.7491 218.361 89.3799C214.794 91.0107 210.833 91.5824 206.951 91.0268C203.068 90.4713 199.427 88.812 196.46 86.2464C194.335 84.4052 192.613 82.1461 191.4 79.6099C190.187 77.0737 189.509 74.3149 189.409 71.5053C189.309 68.6957 189.789 65.8957 190.819 63.2797C191.848 60.6637 193.406 58.2879 195.394 56.3003C197.383 54.3127 199.759 52.756 202.375 51.7272C204.992 50.6983 207.792 50.2195 210.601 50.3205C213.411 50.4214 216.169 51.1 218.705 52.314C221.241 53.5279 223.5 55.2512 225.34 57.3764C228.559 61.094 230.327 65.8489 230.32 70.7664Z" fill="#BD1F28"/>
<path d="M230.32 70.7664C230.319 74.6886 229.192 78.5281 227.072 81.8279C224.952 85.1278 221.928 87.7491 218.361 89.3799C214.794 91.0107 210.833 91.5824 206.951 91.0268C203.068 90.4713 199.427 88.812 196.46 86.2464C193.072 82.3338 191.291 77.2829 191.477 72.1104C191.663 66.9379 193.801 62.0278 197.462 58.3685C201.122 54.7093 206.033 52.5725 211.206 52.3885C216.378 52.2044 221.429 53.9866 225.34 57.3764C228.559 61.094 230.327 65.8489 230.32 70.7664Z" fill="#DC2E28"/>
<path d="M274.64 153.686C274.638 159.978 272.828 166.137 269.427 171.43C266.025 176.723 261.175 180.927 255.453 183.543C249.73 186.159 243.377 187.075 237.149 186.184C230.92 185.293 225.079 182.632 220.32 178.516C216.906 175.564 214.136 171.94 212.185 167.87C210.234 163.8 209.143 159.371 208.979 154.86C208.816 150.35 209.585 145.854 211.237 141.653C212.889 137.453 215.389 133.638 218.582 130.447C221.774 127.256 225.59 124.758 229.791 123.107C233.992 121.457 238.488 120.691 242.999 120.856C247.51 121.021 251.938 122.114 256.007 124.067C260.076 126.02 263.699 128.791 266.65 132.206C271.81 138.172 274.647 145.798 274.64 153.686Z" fill="#BD1F28"/>
<path d="M274.64 153.686C274.638 159.978 272.828 166.137 269.427 171.43C266.025 176.723 261.175 180.927 255.453 183.543C249.73 186.159 243.377 187.075 237.149 186.184C230.92 185.293 225.079 182.632 220.32 178.516C214.897 172.238 212.051 164.139 212.354 155.848C212.657 147.557 216.088 139.688 221.956 133.823C227.823 127.957 235.694 124.53 243.985 124.23C252.276 123.931 260.374 126.78 266.65 132.206C271.81 138.172 274.647 145.798 274.64 153.686Z" fill="#DC2E28"/>
<path d="M97.94 215.346C97.9411 218.691 96.9808 221.966 95.1735 224.781C93.3662 227.595 90.788 229.831 87.746 231.222C84.704 232.613 81.3263 233.1 78.0152 232.626C74.7041 232.151 71.5991 230.735 69.07 228.546C67.259 226.977 65.7907 225.051 64.7566 222.889C63.7226 220.727 63.145 218.375 63.0599 215.98C62.9747 213.585 63.3838 211.198 64.2617 208.968C65.1396 206.738 66.4674 204.713 68.1624 203.018C69.8573 201.324 71.8831 199.997 74.1135 199.12C76.3439 198.243 78.7309 197.835 81.126 197.921C83.521 198.007 85.8726 198.586 88.0342 199.621C90.1958 200.656 92.1211 202.125 93.69 203.936C96.4306 207.106 97.9392 211.156 97.94 215.346Z" fill="#BD1F28"/>
<path d="M97.94 215.346C97.9411 218.691 96.9808 221.966 95.1735 224.781C93.3662 227.595 90.7881 229.831 87.746 231.222C84.704 232.613 81.3263 233.1 78.0152 232.626C74.7041 232.151 71.5991 230.735 69.07 228.546C66.1815 225.211 64.6638 220.905 64.8224 216.496C64.9809 212.086 66.804 207.901 69.9246 204.781C73.0452 201.662 77.2316 199.841 81.6411 199.684C86.0506 199.527 90.3557 201.046 93.69 203.936C96.4306 207.106 97.9392 211.156 97.94 215.346Z" fill="#DC2E28"/>
<path d="M168.39 113.286C168.389 115.043 167.884 116.763 166.933 118.241C165.983 119.719 164.628 120.893 163.03 121.623C161.432 122.353 159.658 122.608 157.919 122.359C156.18 122.11 154.549 121.366 153.22 120.216C152.26 119.394 151.481 118.383 150.931 117.245C150.381 116.107 150.072 114.868 150.024 113.606C149.975 112.343 150.188 111.084 150.649 109.907C151.11 108.731 151.809 107.662 152.703 106.769C153.596 105.875 154.665 105.176 155.841 104.715C157.018 104.254 158.277 104.041 159.539 104.09C160.802 104.138 162.041 104.448 163.179 104.998C164.316 105.548 165.328 106.327 166.15 107.286C167.594 108.952 168.39 111.082 168.39 113.286Z" fill="#BD1F28"/>
<path d="M168.39 113.286C168.389 115.043 167.883 116.763 166.933 118.241C165.983 119.719 164.628 120.893 163.03 121.623C161.432 122.353 159.658 122.608 157.919 122.359C156.18 122.11 154.549 121.366 153.22 120.216C151.717 118.462 150.931 116.205 151.02 113.897C151.109 111.589 152.066 109.399 153.699 107.765C155.332 106.132 157.522 105.175 159.831 105.086C162.139 104.998 164.396 105.783 166.15 107.286C167.594 108.952 168.39 111.082 168.39 113.286Z" fill="#DC2E28"/>
<path d="M275.69 218.006C275.689 220.846 274.872 223.626 273.336 226.016C271.801 228.405 269.611 230.302 267.027 231.482C264.444 232.662 261.576 233.075 258.765 232.671C255.953 232.268 253.317 231.065 251.17 229.206C249.624 227.876 248.369 226.241 247.484 224.403C246.599 222.566 246.103 220.565 246.027 218.527C245.951 216.489 246.296 214.457 247.041 212.559C247.786 210.66 248.915 208.936 250.357 207.494C251.799 206.051 253.524 204.922 255.422 204.177C257.321 203.432 259.353 203.087 261.391 203.163C263.429 203.24 265.429 203.736 267.267 204.621C269.105 205.506 270.74 206.76 272.07 208.306C274.406 210.998 275.691 214.442 275.69 218.006Z" fill="#BD1F28"/>
<path d="M275.69 218.006C275.689 220.846 274.872 223.627 273.336 226.016C271.801 228.405 269.611 230.302 267.027 231.482C264.444 232.662 261.576 233.075 258.765 232.671C255.953 232.268 253.317 231.065 251.17 229.206C248.731 226.372 247.454 222.722 247.594 218.985C247.734 215.249 249.28 211.704 251.924 209.06C254.568 206.417 258.113 204.87 261.849 204.73C265.585 204.59 269.236 205.868 272.07 208.306C274.406 210.998 275.691 214.442 275.69 218.006Z" fill="#DC2E28"/>
<path d="M205.76 255.096C205.747 260.451 204.199 265.689 201.299 270.191C198.4 274.692 194.27 278.268 189.4 280.494C184.531 282.72 179.125 283.503 173.823 282.75C168.522 281.997 163.548 279.74 159.49 276.246C156.526 273.747 154.113 270.659 152.404 267.178C150.696 263.698 149.729 259.9 149.564 256.026C149.4 252.152 150.042 248.287 151.45 244.674C152.858 241.061 155.001 237.78 157.743 235.039C160.485 232.297 163.766 230.155 167.38 228.748C170.993 227.341 174.859 226.7 178.732 226.866C182.606 227.031 186.404 227.999 189.884 229.708C193.364 231.418 196.451 233.831 198.95 236.796C203.35 241.877 205.768 248.375 205.76 255.096Z" fill="#BD1F28"/>
<path d="M205.76 255.096C205.747 260.451 204.199 265.689 201.299 270.191C198.4 274.692 194.27 278.268 189.4 280.494C184.531 282.72 179.125 283.503 173.823 282.75C168.522 281.997 163.548 279.74 159.49 276.246C154.97 270.883 152.627 264.017 152.926 257.009C153.225 250.001 156.144 243.36 161.104 238.401C166.065 233.442 172.706 230.525 179.715 230.228C186.723 229.931 193.587 232.275 198.95 236.796C203.35 241.877 205.768 248.375 205.76 255.096Z" fill="#DC2E28"/>
<path opacity="0.2" d="M253.84 56.4564C277.258 76.6602 293.238 104.122 299.235 134.463C305.232 164.805 300.899 196.281 286.927 223.875C272.956 251.468 250.15 273.59 222.144 286.715C194.139 299.841 162.545 303.214 132.4 296.296C208.75 300.376 269.65 196.866 227.99 122.836C175.48 29.5164 76.05 53.8364 76.05 53.8364C101.282 33.3429 132.918 22.3759 165.421 22.8549C197.924 23.3339 229.223 35.2283 253.84 56.4564Z" fill="black"/>
<path opacity="0.8" d="M53.63 98.6463C40 124.006 12.58 193.366 76.16 257.166C77.6175 258.633 79.3657 259.778 81.2922 260.529C83.2188 261.279 85.2811 261.618 87.3465 261.524C89.4119 261.43 91.4347 260.904 93.285 259.982C95.1353 259.059 96.772 257.759 98.09 256.166L100.78 252.896C103.141 250.035 104.341 246.39 104.141 242.686C103.941 238.981 102.356 235.487 99.7 232.896C83.36 217.006 56.13 178.316 80.58 110.696C81.291 108.739 81.5808 106.654 81.4305 104.578C81.2801 102.501 80.693 100.479 79.7075 98.6453C78.722 96.8112 77.3603 95.2059 75.7116 93.9343C74.0629 92.6627 72.1643 91.7535 70.14 91.2663C66.9593 90.4984 63.6139 90.8061 60.6267 92.1414C57.6395 93.4766 55.179 95.7642 53.63 98.6463Z" fill="url(#paint0_linear)"/>
<path opacity="0.1" d="M163.86 327.726C126.056 327.706 89.421 314.618 60.1619 290.68C30.9027 266.741 10.8183 233.424 3.31135 196.373C-4.19563 159.322 1.33636 120.814 18.9701 87.375C36.6039 53.9355 65.2551 27.6199 100.07 12.8863C135.089 -1.92969 174.17 -4.10586 210.617 6.73071C247.064 17.5673 278.608 40.742 299.843 72.2836C321.079 103.825 330.684 141.77 327.012 179.617C323.341 217.463 306.622 252.854 279.72 279.726C264.519 294.961 246.459 307.044 226.577 315.281C206.695 323.518 185.381 327.748 163.86 327.726Z" fill="url(#paint1_linear)"/>
<path opacity="0.1" d="M163.86 315.976C247.868 315.976 315.97 247.874 315.97 163.866C315.97 79.8583 247.868 11.7563 163.86 11.7563C79.852 11.7563 11.75 79.8583 11.75 163.866C11.75 247.874 79.852 315.976 163.86 315.976Z" fill="url(#paint2_linear)"/>
</g>
<defs>
<linearGradient id="paint0_linear" x1="-55.6765" y1="210.651" x2="77.7225" y2="175.176" gradientUnits="userSpaceOnUse">
<stop stop-color="white"/>
<stop offset="0.22" stop-color="white" stop-opacity="0.76"/>
<stop offset="0.6" stop-color="white" stop-opacity="0.36"/>
<stop offset="0.87" stop-color="white" stop-opacity="0.1"/>
<stop offset="1" stop-color="white" stop-opacity="0"/>
</linearGradient>
<linearGradient id="paint1_linear" x1="53702.1" y1="-169206" x2="53702.1" y2="211081" gradientUnits="userSpaceOnUse">
<stop stop-color="white"/>
<stop offset="0.22" stop-color="white" stop-opacity="0.76"/>
<stop offset="0.6" stop-color="white" stop-opacity="0.36"/>
<stop offset="0.87" stop-color="white" stop-opacity="0.1"/>
<stop offset="1" stop-color="white" stop-opacity="0"/>
</linearGradient>
<linearGradient id="paint2_linear" x1="49861.2" y1="-142193" x2="49861.2" y2="185440" gradientUnits="userSpaceOnUse">
<stop stop-color="white"/>
<stop offset="0.22" stop-color="white" stop-opacity="0.76"/>
<stop offset="0.6" stop-color="white" stop-opacity="0.36"/>
<stop offset="0.87" stop-color="white" stop-opacity="0.1"/>
<stop offset="1" stop-color="white" stop-opacity="0"/>
</linearGradient>
<clipPath id="clip0">
<rect width="327.72" height="327.72" fill="white" transform="translate(0 0.00634766)"/>
</clipPath>
</defs>
</svg>
