<svg width="226" height="527" viewBox="0 0 226 527" fill="none" xmlns="http://www.w3.org/2000/svg">
<path opacity="0.2" d="M117.234 85.6768C117.234 85.6768 15.3246 141.975 0 283.309C0 283.309 14.2033 242.769 23.4988 240.529C23.4988 240.529 -44.7551 435.461 134.119 526.708C134.119 526.708 50.5566 467.518 41.8136 372.364C41.8136 372.364 46.9489 391.283 67.1651 424.246C67.1651 424.246 10.8394 257.32 135.419 102.325L117.234 85.6768Z" fill="url(#paint0_linear)"/>
<path d="M119.639 117.162C109.564 120.768 102.738 121.927 84.1635 133.953L84.0335 134.032V133.921C97.0342 116.209 98.4643 109.584 102.511 99.8623C106.557 90.1403 118.258 85.041 118.258 85.041L127.423 92.9838L135.256 102.245C135.256 102.245 129.78 113.54 119.639 117.162Z" fill="#F68F37"/>
<path d="M98.3344 120.577C100.921 115.874 103.159 110.995 105.03 105.978C105.599 104.517 106.2 102.992 106.85 101.435C108.995 96.3198 116.795 90.2356 119.964 88.3452L125.75 94.207L131.632 100.228C129.585 103.246 123.507 111.046 118.144 112.936C116.519 113.508 114.894 114.032 113.448 114.525C108.265 116.177 103.213 118.2 98.3344 120.577Z" fill="#F1BC02"/>
<path d="M106.444 112.92C107.581 110.649 108.589 108.504 109.564 106.407C110.311 104.819 111.091 103.135 111.936 101.435C113.561 98.2578 118.437 93.6828 122.223 90.6804L129.455 98.0195C126.107 102.054 121.524 106.677 118.404 107.996C116.633 108.758 114.894 109.457 113.22 110.14C111.026 110.998 108.881 111.888 106.444 112.92Z" fill="#F9F8A8"/>
<path d="M130.446 59.5289C128.066 59.2982 125.662 59.5084 123.361 60.1484C111.368 63.2302 98.7894 75.2397 98.7894 75.2397C98.6269 74.9538 92.289 63.1508 101.081 48.409C105.729 40.6727 113.253 36.2565 119.428 33.7943C119.9 33.5881 120.426 33.5309 120.933 33.6305C121.44 33.7302 121.902 33.9817 122.256 34.3503C122.759 34.8498 123.039 35.5237 123.036 36.2248C123.025 36.554 122.948 36.878 122.808 37.1779C122.669 37.4779 122.47 37.7478 122.223 37.9722L139.953 33.3654L153.23 29.95C146.437 44.3899 130.446 59.5289 130.446 59.5289Z" fill="#E42F28"/>
<path opacity="0.2" d="M98.7894 75.2397C98.6269 74.9538 92.289 63.1508 101.081 48.409C105.729 40.6727 113.253 36.2565 119.428 33.7943C119.9 33.5881 120.426 33.5308 120.933 33.6305C121.44 33.7301 121.902 33.9817 122.256 34.3502C122.759 34.8498 123.039 35.5237 123.036 36.2247C122.776 36.7807 122.516 37.3685 122.223 37.9722C122.223 37.9722 109.223 44.1199 102.901 56.177C96.5793 68.2342 98.7244 75.0173 98.7894 75.2397Z" fill="black"/>
<path opacity="0.2" d="M130.446 59.5289C128.066 59.2982 125.662 59.5084 123.361 60.1484C126.757 49.8069 133.664 40.3868 139.953 33.3654L153.23 29.95C146.437 44.3899 130.446 59.5289 130.446 59.5289Z" fill="black"/>
<path d="M161.908 91.4269C162.062 93.7597 161.758 96.0997 161.014 98.3213C157.423 109.934 144.633 121.769 144.633 121.769C144.909 121.943 156.74 128.647 172.13 120.529C179.148 116.528 184.633 110.391 187.747 103.055C187.972 102.599 188.048 102.085 187.964 101.584C187.88 101.084 187.639 100.621 187.276 100.259C187.032 100.009 186.74 99.8082 186.416 99.6691C186.093 99.53 185.744 99.4553 185.391 99.4492C185.052 99.4445 184.717 99.5068 184.404 99.6324C184.091 99.758 183.808 99.9442 183.57 100.18L188.868 83.0234L192.85 70.1719C177.964 76.3673 161.908 91.4269 161.908 91.4269Z" fill="#E42F28"/>
<path opacity="0.2" d="M144.633 121.769C144.909 121.943 156.74 128.647 172.13 120.53C179.148 116.528 184.633 110.391 187.747 103.055C187.972 102.599 188.048 102.085 187.964 101.585C187.88 101.084 187.639 100.621 187.276 100.26C187.032 100.009 186.74 99.8085 186.416 99.6694C186.093 99.5303 185.744 99.4555 185.391 99.4495L183.57 100.18C183.57 100.18 176.875 112.793 164.329 118.449C151.784 124.104 144.909 121.848 144.633 121.769Z" fill="black"/>
<path opacity="0.2" d="M161.908 91.4271C162.062 93.7599 161.758 96.1 161.014 98.3215C171.707 95.4303 181.588 88.9807 188.933 83.103L192.915 70.2515C177.964 76.3675 161.908 91.4271 161.908 91.4271Z" fill="black"/>
<path d="M191.55 71.3476C188.098 74.7137 184.464 77.8954 180.662 80.879C176.901 83.7192 172.887 86.2233 168.668 88.3611L168.197 88.5835L160.218 92.0942L151.394 95.9544L134.606 103.262L117.234 85.6764L118.16 83.8337L125.376 69.5367L129.666 61.0538C135.084 50.2297 142.343 40.3837 151.134 31.9355L151.897 31.2048C162.134 21.3731 174.095 13.4203 187.211 7.72591L189.502 6.77278C191.306 6.05793 193.094 5.40662 194.816 4.81885L197.01 4.104L198.115 3.7704C202.256 2.52809 206.48 1.57259 210.758 0.911001C214.232 0.372098 217.74 0.0695448 221.256 0.00552377C221.899 -0.0258991 222.54 0.0770127 223.138 0.307382C223.736 0.537751 224.277 0.89027 224.725 1.34138C225.173 1.79249 225.517 2.33181 225.734 2.92328C225.951 3.51475 226.037 4.14476 225.985 4.77119C225.498 12.4359 223.917 19.9963 221.289 27.2334L220.866 28.4089C220.606 29.1079 220.346 29.8068 220.054 30.5217C219.404 32.1103 218.672 33.8894 217.86 35.621C217.535 36.3411 217.194 37.056 216.836 37.7655C210.529 50.3476 201.965 61.7217 191.55 71.3476Z" fill="white"/>
<path d="M143.382 99.4333L134.606 103.262C133.648 102.706 132.721 102.134 131.811 101.53C130.901 100.927 130.3 100.498 129.569 99.9416C127.033 98.0691 124.706 95.9391 122.629 93.5874C120.504 91.1668 118.692 88.4991 117.234 85.6447L121.492 77.2095C123.5 80.6932 125.846 83.9807 128.496 87.0267C131.595 90.6007 135.119 93.8005 138.994 96.558L140.977 97.9242C141.757 98.4961 142.569 98.9409 143.382 99.4333Z" fill="#003557"/>
<path opacity="0.2" d="M122.629 93.5884C120.504 91.1677 118.692 88.5 117.234 85.6456L121.492 77.2103L125.376 69.5058L129.666 61.0228C135.087 50.21 142.346 40.3749 151.134 31.9363L151.897 31.2055C168.49 15.5741 184.903 7.69478 198.05 3.77103C202.19 2.52872 206.415 1.57321 210.693 0.911621C211.181 4.16817 212.578 4.56532 208.321 9.82346C208.321 9.82346 170.944 18.7194 151.849 43.7552C134.476 66.7258 145.283 68.4255 145.283 68.4255L128.496 87.0594L122.629 93.5884Z" fill="black"/>
<path d="M118.047 103.754C117.775 103.87 117.474 103.902 117.183 103.845C116.892 103.789 116.627 103.646 116.422 103.436C116.211 103.233 116.072 102.971 116.022 102.686C115.973 102.401 116.016 102.108 116.145 101.848C126.676 79.6082 158.398 57.7974 171.724 49.4257C172.011 49.2477 172.352 49.1718 172.69 49.211C173.027 49.2501 173.341 49.4019 173.578 49.6407C173.814 49.8795 173.96 50.1907 173.989 50.5219C174.018 50.8531 173.93 51.1841 173.739 51.4591C164.622 64.0563 141.139 94.2864 118.047 103.754Z" fill="#E42F28"/>
<path opacity="0.2" d="M173.592 49.5524L116.422 103.436C116.211 103.233 116.072 102.97 116.022 102.685C115.973 102.4 116.016 102.107 116.145 101.848C126.676 79.6079 158.398 57.797 171.724 49.4253C172 49.2263 172.34 49.1298 172.682 49.1531C173.024 49.1763 173.347 49.3179 173.592 49.5524Z" fill="black"/>
<path d="M198.375 45.216C196.381 47.0959 193.861 48.3555 191.134 48.8356C188.408 49.3157 185.597 48.9947 183.057 47.9132C180.517 46.8317 178.362 45.0382 176.865 42.7597C175.368 40.4811 174.595 37.8196 174.645 35.1119C174.695 32.4042 175.565 29.7717 177.146 27.5474C178.726 25.3232 180.946 23.6069 183.524 22.6157C186.102 21.6245 188.923 21.4028 191.63 21.9788C194.337 22.5547 196.809 23.9024 198.733 25.8514C200.012 27.1447 201.018 28.672 201.692 30.3459C202.367 32.0198 202.697 33.8074 202.664 35.6062C202.631 37.405 202.235 39.1798 201.499 40.8288C200.763 42.4778 199.701 43.9687 198.375 45.216Z" fill="#003557"/>
<path d="M196.328 43.1666L196.23 43.2619C194.123 45.1911 191.33 46.2407 188.443 46.1873C185.557 46.1339 182.806 44.9817 180.775 42.976L180.678 42.8807C179.964 42.1681 179.357 41.3605 178.874 40.4819C178.038 38.945 177.592 37.2343 177.574 35.4938C177.554 34.0146 177.843 32.5469 178.424 31.1809C179.006 29.815 179.867 28.5797 180.954 27.551C182.275 26.3072 183.892 25.4034 185.658 24.9206C187.424 24.4379 189.286 24.3912 191.075 24.7848C192.865 25.1784 194.526 26 195.911 27.1759C197.296 28.3519 198.36 29.8453 199.009 31.5224C199.539 32.9126 199.777 34.393 199.708 35.8751C199.642 37.6171 199.146 39.3176 198.261 40.8314C197.733 41.6953 197.082 42.4815 196.328 43.1666Z" fill="#34C8CB"/>
<path opacity="0.1" d="M198.261 40.8316C199.16 39.3268 199.673 37.6317 199.756 35.8911C199.825 34.409 199.588 32.9285 199.058 31.5384C198.409 29.8613 197.344 28.3678 195.96 27.1919C194.575 26.0159 192.914 25.1943 191.124 24.8007C189.335 24.4071 187.473 24.4537 185.707 24.9365C183.94 25.4193 182.324 26.3231 181.003 27.5669C180.792 27.7734 180.58 27.9799 180.385 28.2023C182.54 26.4923 185.272 25.6335 188.043 25.7952C190.813 25.957 193.421 27.1275 195.352 29.076C196.404 30.1333 197.218 31.3942 197.741 32.7775C198.279 34.1656 198.517 35.6477 198.44 37.1302C198.354 38.8704 197.841 40.5649 196.945 42.0707C196.583 42.669 196.164 43.2328 195.694 43.7546L196.279 43.2622L196.376 43.1669C197.113 42.4785 197.748 41.6925 198.261 40.8316Z" fill="black"/>
<path d="M196.311 32.8887C196.311 32.8887 196.181 39.068 191.533 41.6096C186.447 44.3895 182.433 41.6096 179.946 37.1141C180.097 38.7621 180.741 40.3301 181.799 41.6216C182.857 42.913 184.282 43.8704 185.894 44.3736C192.037 46.7088 198.375 40.5453 196.311 32.8887Z" fill="#02EEED"/>
<path d="M221.289 27.2649C212.225 20.8107 204.383 12.8599 198.115 3.77013C205.612 1.46792 213.401 0.200713 221.256 0.00525216C222.036 -0.0300321 222.811 0.131151 223.508 0.473323C224.206 0.815494 224.801 1.32716 225.238 1.95918C225.78 2.79753 226.042 3.78047 225.985 4.77092C225.501 12.4463 223.92 20.0177 221.289 27.2649Z" fill="#E42F28"/>
<path opacity="0.2" d="M223.548 10.3949C223.678 9.48939 223.873 8.8063 224.117 7.47191C224.507 5.29558 224.117 4.29479 222.621 4.29479C219.843 4.18359 216.3 15.1447 219.176 19.4497C221.435 22.8015 222.979 14.3027 223.548 10.3949Z" fill="black"/>
<path opacity="0.2" d="M221.289 27.2649C212.225 20.8107 204.383 12.8599 198.115 3.77013C205.612 1.46792 213.401 0.200713 221.256 0.00525216C222.036 -0.0300321 222.811 0.131151 223.508 0.473323C224.206 0.815494 224.801 1.32716 225.238 1.95918C224.263 1.87975 217.259 1.4985 213.163 5.35869C208.759 9.5366 210.384 18.6708 221.289 27.2649Z" fill="black"/>
<defs>
<linearGradient id="paint0_linear" x1="66.9928" y1="80.2483" x2="67.5472" y2="517.991" gradientUnits="userSpaceOnUse">
<stop stop-color="white"/>
<stop offset="0.35" stop-color="white" stop-opacity="0.62"/>
<stop offset="0.61" stop-color="white" stop-opacity="0.35"/>
<stop offset="0.87" stop-color="white" stop-opacity="0.1"/>
<stop offset="1" stop-color="white" stop-opacity="0"/>
</linearGradient>
</defs>
</svg>
