<svg xmlns="http://www.w3.org/2000/svg" viewBox="0 0 90.37 199.26"><defs><style>.cls-1{fill:#fd0;}.cls-2{fill:#f8a710;}.cls-3{fill:#df4426;}.cls-4{fill:#ed9721;}.cls-5{fill:#bc7a31;}.cls-6{fill:#e96025;}.cls-7{fill:#b74a2c;}.cls-8{fill:#eee6db;}.cls-9{fill:#d1c6b8;}.cls-10{fill:#b7a697;}.cls-11{fill:#f2961f;}.cls-12{fill:#dff0ff;}</style></defs><title>Ресурс 4</title><g id="Слой_2" data-name="Слой 2"><g id="Objects"><path class="cls-1" d="M32.5,180.26s-11.9-36.8,0-36.8C32.5,143.46,45.25,142.52,32.5,180.26Z"/><path class="cls-2" d="M32.54,174.19s-8.56-28.66,0-28.66C32.54,145.53,41.64,144.64,32.54,174.19Z"/><path class="cls-3" d="M32.57,169.1s-6.47-22.48,0-22.48C32.57,146.62,39.59,146,32.57,169.1Z"/><path class="cls-1" d="M57.5,180.26s-11.9-36.8,0-36.8C57.5,143.46,70.25,142.52,57.5,180.26Z"/><path class="cls-2" d="M57.54,174.19s-8.56-28.66,0-28.66C57.54,145.53,66.64,144.64,57.54,174.19Z"/><path class="cls-3" d="M57.57,169.1s-6.47-22.48,0-22.48C57.57,146.62,64.59,146,57.57,169.1Z"/><path class="cls-1" d="M45.06,199.26s-11.9-36.8,0-36.8C45.06,162.46,57.81,161.52,45.06,199.26Z"/><path class="cls-2" d="M45.1,193.19s-8.56-28.66,0-28.66C45.1,164.53,54.21,163.64,45.1,193.19Z"/><path class="cls-3" d="M45.13,188.1s-6.47-22.48,0-22.48C45.13,165.62,52.15,165,45.13,188.1Z"/><path class="cls-4" d="M20.3,97.25S4.67,100.5.54,115C-2.32,125.09,6.75,142,15,148.07c0,0-5.86-24.47,10.56-29.34Z"/><path class="cls-5" d="M22.7,111.75h1.12l1.7,7C9.1,123.6,15,148.07,15,148.07S.28,122.66,22.7,111.75Z"/><path class="cls-4" d="M70.08,97.25S85.71,100.5,89.84,115c2.86,10.06-6.22,26.92-14.43,33,0,0,5.86-24.47-10.55-29.34Z"/><path class="cls-5" d="M67.67,111.75H66.55l-1.69,7c16.41,4.87,10.55,29.34,10.55,29.34S89.73,124.6,67.67,111.75Z"/><path class="cls-6" d="M59.91,128.65c-4.6,2-13,3-14.92,3.17-1.87-.19-10.31-1.14-14.92-3.17v8.72a43,43,0,0,0,14.54,2.29h.77a42.88,42.88,0,0,0,14.53-2.29Z"/><path class="cls-7" d="M59.91,137.37v-8.72a20.92,20.92,0,0,1-2.09.77l-6.24,3.08-2.11,7A40.26,40.26,0,0,0,59.91,137.37Z"/><path class="cls-8" d="M71.92,34.42A71.21,71.21,0,0,0,45,0,71.21,71.21,0,0,0,18.06,34.42c-5.77,16.14-6.42,32.58,0,59.66s8.72,35.33,8.72,35.33,6.58,3.67,17.6,3.67a48.33,48.33,0,0,0,18.82-3.67s2.3-8.26,8.72-35.33S77.7,50.56,71.92,34.42Z"/><polygon class="cls-9" points="57.61 27.61 57.62 27.61 57.61 27.61 57.61 27.61"/><path class="cls-9" d="M52,132.5a44.33,44.33,0,0,0,11.2-3.09s2.3-8.26,8.72-35.33,5.78-43.52,0-59.66A66.94,66.94,0,0,0,69,27.61H57.61C57.65,27.7,73,62.37,52,132.5Z"/><path class="cls-10" d="M44.4,91.82c-16.8,0-26.77-2.53-27.46-2.71l-1.15-5.72a149.36,149.36,0,0,0,58.36.21l-1.09,5.46A138.19,138.19,0,0,1,44.4,91.82Z"/><path class="cls-10" d="M44.4,83.39a142,142,0,0,1-29.08-2.7l-.54-3.36c.25.06,29.32,6.31,60.42,0l-.5,3.18A154.14,154.14,0,0,1,44.4,83.39Z"/><path class="cls-10" d="M73.65,39.79c-32.28-8-57.1-.07-57.31,0l1.05-3.37c.88-.34,24.9-7.28,55.2-.07Z"/><path class="cls-11" d="M63.12,57.92A18.13,18.13,0,1,1,45,39.79,18.13,18.13,0,0,1,63.12,57.92Z"/><path class="cls-12" d="M57.61,57.92A12.62,12.62,0,1,1,45,45.3,12.62,12.62,0,0,1,57.61,57.92Z"/><path class="cls-4" d="M70.06,29.79A71.34,71.34,0,0,0,45,0,71.41,71.41,0,0,0,19.84,30C19.93,29.94,38.36,22.7,70.06,29.79Z"/><path class="cls-5" d="M57.62,27.62c3.89.49,8,1.19,12.44,2.17l0-.06A72.63,72.63,0,0,0,47.68,1.86l0,0-.54-.4-.06,0-.47-.33L46.5,1,46.11.74,46,.68,45.72.47l-.08,0L45.41.27,45.34.22l-.16-.1h0L45,0l0,0s6.95,7.83,12.62,27.61Z"/><polygon class="cls-5" points="57.61 27.61 57.61 27.61 57.61 27.61 57.61 27.61"/><path class="cls-4" d="M45.85,97.25s-19,21.14,0,61.61C45.85,158.86,63.12,121.54,45.85,97.25Z"/><path class="cls-5" d="M45.85,158.86s17.27-37.32,0-61.61C45.85,97.25,54,130.82,45.85,158.86Z"/></g></g></svg>