<svg xmlns="http://www.w3.org/2000/svg" viewBox="0 0 165.98 165.98"><defs><style>.cls-1{fill:#7189c5;}.cls-2{fill:#56534f;}.cls-3{fill:#3a3835;}.cls-4{fill:#67645d;}.cls-5{fill:#494742;}.cls-6{fill:#afaeac;}.cls-7{fill:#9b9995;}.cls-8{fill:#8e8c88;}</style></defs><title>Ресурс 5</title><g id="Слой_2" data-name="Слой 2"><g id="Objects"><path class="cls-1" d="M163.22,30.12,119.84,73.5a9.42,9.42,0,0,1-13.31,0l-14.06-14a9.42,9.42,0,0,1,0-13.31L135.86,2.75a9.42,9.42,0,0,1,13.31,0L163.22,16.8A9.43,9.43,0,0,1,163.22,30.12ZM94,47.62A7.33,7.33,0,0,0,94,58L108,72a7.32,7.32,0,0,0,10.35,0l43.39-43.38a7.35,7.35,0,0,0,0-10.36l-14.06-14a7.33,7.33,0,0,0-10.35,0Z"/><rect class="cls-1" x="85.11" y="33.38" width="78.09" height="2.09" transform="translate(12.02 97.87) rotate(-45)"/><rect class="cls-1" x="92.5" y="40.78" width="78.09" height="2.09" transform="translate(8.96 105.27) rotate(-45)"/><rect class="cls-1" x="107.08" y="39.55" width="2.09" height="36.61" transform="translate(-9.24 93.38) rotate(-44.99)"/><rect class="cls-1" x="116.94" y="29.69" width="2.09" height="36.61" transform="translate(0.62 97.47) rotate(-44.99)"/><rect class="cls-1" x="126.8" y="19.82" width="2.09" height="36.61" transform="translate(10.48 101.55) rotate(-44.99)"/><rect class="cls-1" x="136.67" y="9.96" width="2.09" height="36.61" transform="translate(20.36 105.68) rotate(-45.01)"/><rect class="cls-1" x="146.52" y="0.1" width="2.09" height="36.61" transform="translate(30.19 109.72) rotate(-44.99)"/><path class="cls-1" d="M73.5,119.84,30.12,163.23a9.43,9.43,0,0,1-13.32,0l-14-14.05a9.42,9.42,0,0,1,0-13.31L46.14,92.48a9.42,9.42,0,0,1,13.31,0l14,14.06A9.42,9.42,0,0,1,73.5,119.84ZM4.23,137.34a7.33,7.33,0,0,0,0,10.35l14.05,14.06a7.35,7.35,0,0,0,10.36,0L72,118.36A7.32,7.32,0,0,0,72,108L58,94a7.33,7.33,0,0,0-10.35,0Z"/><rect class="cls-1" x="-4.62" y="123.11" width="78.09" height="2.09" transform="translate(-77.71 60.71) rotate(-45)"/><rect class="cls-1" x="2.78" y="130.5" width="78.09" height="2.09" transform="translate(-80.77 68.1) rotate(-45)"/><rect class="cls-1" x="17.36" y="129.27" width="2.09" height="36.6" transform="translate(-98.99 56.28) rotate(-45.02)"/><rect class="cls-1" x="27.22" y="119.41" width="2.09" height="36.61" transform="translate(-89.1 60.32) rotate(-45)"/><rect class="cls-1" x="37.08" y="109.55" width="2.09" height="36.61" transform="translate(-79.23 64.39) rotate(-44.99)"/><rect class="cls-1" x="46.94" y="99.69" width="2.09" height="36.61" transform="translate(-69.38 68.49) rotate(-45)"/><rect class="cls-1" x="56.8" y="89.83" width="2.09" height="36.61" transform="translate(-59.51 72.56) rotate(-44.99)"/><path class="cls-2" d="M107.26,107.27a19.3,19.3,0,1,1,0,27.3A19.31,19.31,0,0,1,107.26,107.27Z"/><path class="cls-3" d="M134.56,107.26a19.3,19.3,0,0,0-23.23-3.08l-4.48,10.55s17.61-6.23,27,11.52l6.32-5.54A19.24,19.24,0,0,0,134.56,107.26Z"/><path class="cls-1" d="M43.55,41.74,33.29,31.48a5.13,5.13,0,1,0-1.81,1.81L41.74,43.55Z"/><path class="cls-4" d="M53.33,86.35l27.29,27.3,3.09,3.08a14.93,14.93,0,0,0,21.13,0l11.89-11.89a14.93,14.93,0,0,0,0-21.13l-3.08-3.08-27.3-27.3L71,38,38,71Z"/><polygon class="cls-5" points="106.85 114.73 106.85 114.72 106.85 114.73 106.85 114.73"/><path class="cls-5" d="M116.73,83.71l-3.08-3.08L88.89,55.87,78.81,75.16l28,28s4.88,3.89,0,11.54h0l9.88-9.89A14.93,14.93,0,0,0,116.73,83.71Z"/><path class="cls-6" d="M71,38l-3.19,3.19c5.48-16.51-3.27-30.49-3.27-30.49L37.65,37.65,10.72,64.58s14,8.75,30.49,3.27L38,71,60.47,93.5l33-33Z"/><path class="cls-7" d="M78.81,75.16,93.5,60.48,71,38l-3.19,3.19c5.48-16.51-3.27-30.49-3.27-30.49l-12,12c2.43,3.62,9.6,16,4.38,29.37Z"/><polygon class="cls-1" points="129.67 127.84 141.4 139.52 139.58 141.32 127.86 129.65 129.67 127.84"/><polygon class="cls-6" points="139.97 117.59 146.28 123.88 123.88 146.19 117.56 139.9 139.97 117.59"/><polygon class="cls-8" points="132.99 124.54 139.04 131.09 146.28 123.88 139.97 117.59 132.99 124.54"/></g></g></svg>