<svg xmlns="http://www.w3.org/2000/svg" viewBox="0 0 216.64 115.02"><defs><style>.cls-1{fill:#83a9b1;}.cls-2{fill:#b5e2ed;}.cls-3{fill:#9ec8d2;}.cls-4{fill:#779ba0;}.cls-5{fill:#93c6ce;}.cls-6{fill:#698a8e;}.cls-7{fill:#84b9c1;}.cls-8{fill:#86b0b7;}.cls-9{fill:#70969b;}.cls-10{fill:#a3d0d8;}.cls-11{fill:#66898d;}.cls-12{fill:#4e6c6d;}</style></defs><title>Ресурс 1</title><g id="Слой_2" data-name="Слой 2"><g id="Objects"><path class="cls-1" d="M164.52,57.51A57.51,57.51,0,1,1,107,0,57.51,57.51,0,0,1,164.52,57.51Z"/><path class="cls-2" d="M134.53,108A57.5,57.5,0,1,0,55.65,83.41S80.34,103.63,134.53,108Z"/><path class="cls-1" d="M107,0A57.51,57.51,0,0,0,49.5,57.51c0,1.43.06,2.84.16,4.24C52.79,65,59,69.87,73.27,73.2c14.51,3.4,17.24,3.09,37.64,9.26s28.59,1.46,37.68,1.86a44.88,44.88,0,0,0,9.57-.51A57.52,57.52,0,0,0,107,0Z"/><path class="cls-2" d="M107,0A57.53,57.53,0,0,0,50.34,47.7c6.32,3.09,48.23,21.8,114.18,10v-.24A57.51,57.51,0,0,0,107,0Z"/><path class="cls-3" d="M59.43,25.21s28.8,10.16,58.1,10.09c25.73-.06,38.35,3.74,44.69,6.06A57.52,57.52,0,0,0,59.43,25.21Z"/><path class="cls-1" d="M156.57,28.33a57.53,57.53,0,0,0-79.32-20h0s24,13.54,79.32,20Z"/><path class="cls-2" d="M82.37,5.54c12.44,6,32,12.12,64.88,10.89A57.52,57.52,0,0,0,82.37,5.54Z"/><path class="cls-4" d="M164.52,57.51a57.52,57.52,0,0,0-44.61-56c.74.91,45.93,57-24,112.47a57.5,57.5,0,0,0,68.59-56.43Z"/><path class="cls-5" d="M164.39,53.84c0-.62-.08-1.23-.14-1.85,0-.35-.08-.69-.12-1-.06-.56-.13-1.12-.21-1.67,0-.36-.1-.72-.16-1.08-.09-.54-.19-1.08-.29-1.61l-.21-1.06c-.12-.56-.25-1.1-.38-1.65-.08-.32-.15-.65-.24-1-.17-.66-.36-1.31-.55-2-.06-.2-.11-.4-.18-.6-.25-.81-.53-1.62-.82-2.42-.12-.35-.26-.68-.39-1s-.36-.95-.55-1.41-.33-.76-.5-1.14-.36-.82-.55-1.23L158.53,32c-.19-.38-.38-.75-.58-1.12s-.42-.81-.64-1.2-.39-.68-.59-1-.48-.83-.73-1.23-.34-.54-.52-.81a55.31,55.31,0,0,0-3.34-4.69c-.14-.18-.27-.36-.42-.53-.37-.46-.75-.91-1.14-1.36l-.47-.55c-.4-.45-.81-.89-1.22-1.33l-.45-.48c-.44-.45-.88-.9-1.33-1.33l-.34-.33a57.77,57.77,0,0,0-9.07-7.09l0,0c-.65-.41-1.31-.81-2-1.19l-.11-.06a57,57,0,0,0-15.65-6.13h0c.7.86,40.74,50.55-12.79,102.65a223.81,223.81,0,0,0,27.4,3.9q1-.57,2-1.17l.63-.39c.54-.34,1.09-.68,1.62-1l.47-.31c.65-.44,1.29-.9,1.92-1.37l.57-.43c.5-.37,1-.76,1.46-1.14l.52-.42c.6-.5,1.19-1,1.77-1.54l.49-.45c.45-.42.9-.84,1.34-1.28l.51-.5c.55-.56,1.09-1.12,1.62-1.7l.37-.42c.43-.48.85-1,1.26-1.45l.47-.57c.5-.62,1-1.23,1.47-1.87l.22-.3c.41-.56.81-1.13,1.21-1.7l.41-.61c.41-.61.8-1.22,1.18-1.84l.15-.23c.41-.69.81-1.39,1.2-2.09.11-.21.22-.42.34-.63.32-.6.63-1.2.93-1.82.06-.13.14-.27.2-.41.35-.72.68-1.46,1-2.2l.26-.63c.25-.61.5-1.23.73-1.86.07-.17.14-.35.2-.52.28-.77.54-1.55.79-2.33.06-.19.11-.38.17-.58.2-.64.38-1.29.56-2,.05-.2.11-.4.16-.6.2-.81.39-1.62.56-2.44l.09-.49c.14-.69.26-1.39.38-2.09,0-.22.07-.43.1-.65.12-.84.23-1.69.32-2.54l0-.32q.1-1.14.18-2.31l0-.69c0-.87.07-1.75.07-2.63s0-1.85-.07-2.77Z"/><path class="cls-6" d="M164.39,53.84c0-.62-.08-1.23-.14-1.85,0-.35-.08-.69-.12-1-.06-.56-.13-1.12-.21-1.67,0-.36-.1-.72-.16-1.08-.09-.54-.19-1.08-.29-1.61l-.21-1.06c-.12-.56-.25-1.1-.38-1.65-.08-.32-.15-.65-.24-1-.17-.66-.36-1.31-.55-2-.06-.2-.11-.4-.18-.6-.25-.81-.53-1.62-.82-2.42-.12-.35-.26-.68-.39-1s-.36-.95-.55-1.41-.33-.76-.5-1.14-.36-.82-.55-1.23L158.53,32c-.19-.38-.38-.75-.58-1.12s-.42-.81-.64-1.2-.39-.68-.59-1-.48-.83-.73-1.23-.34-.54-.52-.81a55.31,55.31,0,0,0-3.34-4.69c-.14-.18-.27-.36-.42-.53-.37-.46-.75-.91-1.14-1.36l-.47-.55c-.4-.45-.81-.89-1.22-1.33l-.45-.48c-.44-.45-.88-.9-1.33-1.33l-.34-.33a57.77,57.77,0,0,0-9.07-7.09l0,0c-.65-.41-1.31-.81-2-1.19l-.11-.06a57,57,0,0,0-15.65-6.13h0c.62.75,31.51,39.09,2.94,83.67,12.14,1.65,18.67-1.13,25.74-.82a45.52,45.52,0,0,0,9.55-.5l.28-.55c.31-.61.6-1.23.89-1.85l.45-1c.3-.68.57-1.37.84-2.06.11-.28.23-.55.33-.83q.56-1.47,1-3l.09-.33q.41-1.33.75-2.7c.08-.34.16-.68.23-1,.16-.69.32-1.39.45-2.09.08-.39.14-.78.21-1.17.12-.67.22-1.35.31-2,0-.39.11-.79.15-1.18.08-.73.15-1.47.2-2.2,0-.35.06-.7.08-1,.06-1.08.1-2.17.1-3.27,0-.93,0-1.85-.07-2.77Z"/><path class="cls-7" d="M164.51,57.75c0-.08,0-.16,0-.24,0-.93,0-1.85-.07-2.77l-.06-.9c0-.62-.08-1.23-.14-1.85,0-.35-.08-.69-.12-1-.06-.56-.13-1.12-.21-1.67,0-.36-.1-.72-.16-1.08-.09-.54-.19-1.08-.29-1.61l-.21-1.06c-.12-.56-.25-1.1-.38-1.65-.08-.32-.15-.65-.24-1-.17-.66-.36-1.31-.55-2-.06-.2-.11-.4-.18-.6-.25-.81-.53-1.62-.82-2.42-.12-.35-.26-.68-.39-1s-.36-.95-.55-1.41-.33-.76-.5-1.14-.36-.82-.55-1.23L158.53,32c-.19-.38-.38-.75-.58-1.12s-.42-.81-.64-1.2-.39-.68-.59-1-.48-.83-.73-1.23-.34-.54-.52-.81a55.31,55.31,0,0,0-3.34-4.69c-.14-.18-.27-.36-.42-.53-.37-.46-.75-.91-1.14-1.36l-.47-.55c-.4-.45-.81-.89-1.22-1.33l-.45-.48c-.44-.45-.88-.9-1.33-1.33l-.34-.33a57.77,57.77,0,0,0-9.07-7.09l0,0c-.65-.41-1.31-.81-2-1.19l-.11-.06a57,57,0,0,0-15.65-6.13h0c.5.61,21.14,26.23,13.25,59.83A244,244,0,0,0,164.51,57.75Z"/><path class="cls-8" d="M162.08,40.91c-.13-.4-.25-.81-.39-1.21s-.23-.71-.35-1.07-.27-.77-.42-1.15-.27-.73-.42-1.09l-.43-1.08c-.16-.38-.33-.76-.5-1.13s-.29-.67-.45-1-.37-.79-.57-1.18l-.45-.9c-.22-.42-.44-.83-.67-1.24s-.29-.53-.44-.8c-.25-.44-.51-.87-.77-1.31l-.42-.68c-.29-.47-.6-.94-.91-1.4-.12-.18-.23-.36-.35-.53-.36-.52-.73-1-1.1-1.55l-.24-.33c-.45-.6-.91-1.2-1.38-1.78l0,0a57.56,57.56,0,0,0-31.88-20,76.27,76.27,0,0,1,14.32,34.41c14.84,1.14,23.19,3.73,28,5.48C162.16,41.21,162.12,41.06,162.08,40.91Z"/><path class="cls-9" d="M156.1,27.56l-.28-.46c-.79-1.27-1.63-2.5-2.52-3.71l-.16-.21c-.41-.55-.82-1.08-1.25-1.61l-.18-.23a57.52,57.52,0,0,0-31.8-19.87,74.63,74.63,0,0,1,11.75,23.14c7.47,1.37,15.75,2.64,24.89,3.72Z"/><path class="cls-10" d="M141.72,11.68l-.18-.15c-.56-.41-1.12-.82-1.69-1.22l-.31-.22Q138.69,9.5,137.8,9l-.29-.18c-.61-.38-1.22-.76-1.85-1.11l-.14-.08a57,57,0,0,0-15.61-6.11,69.7,69.7,0,0,1,8.64,14.84c5.7.31,11.9.37,18.68.12A55.38,55.38,0,0,0,141.72,11.68Z"/><path class="cls-11" d="M53.75,36.26s-37-5.84-41.32,1.85,51,26.72,88.67,35.29S182,88.74,198.3,83c14.85-5.21-34.11-21.22-34.11-21.22l.17-3.53s41.11,11,51.21,25.58c8.82,12.75-38.4,13.81-114.9-3.31C42.6,67.52-9,46.45,1.33,34.9c10.91-12.17,53.94-2.13,53.94-2.13Z"/><path class="cls-12" d="M164.36,58.25l-.17,3.53s49,16,34.11,21.22c-12.83,4.51-41.49,1.44-71.75-4.3-1.11,2-2.32,4.2-3.7,6.44,63.71,12.33,100.69,10.2,92.72-1.31C205.47,69.24,164.36,58.25,164.36,58.25Z"/></g></g></svg>