<svg width="467" height="419" viewBox="0 0 467 419" fill="none" xmlns="http://www.w3.org/2000/svg">
<g clip-path="url(#clip0)">
<path d="M158.202 132.712C166.157 129.034 170.259 134.613 170.084 139.342C169.834 146.022 166.357 147.248 175.837 151.851C182.842 155.154 185.493 163.61 178.814 168.914C169.459 176.42 180.89 179.572 183.817 184.426C190.121 194.433 182.466 198.186 170.234 205.241C158.002 212.296 147.495 211.02 137.039 203.79C129.535 198.461 124.532 191.956 127.708 185.076C132.411 175.069 142.893 180.072 137.965 171.691C135.013 166.687 133.487 156.68 145.469 154.178C157.451 151.676 146.745 138.041 158.202 132.712Z" fill="url(#paint0_linear)"/>
<path d="M106.646 122.154C95.9144 121.354 93.613 129.66 95.8644 134.864C99.0663 142.369 103.569 142.369 94.6136 151.626C88.0096 158.456 88.61 169.314 98.591 172.567C112.549 177.045 100.792 185.727 99.3915 192.582C96.5148 206.892 106.896 207.818 124.006 210.62C141.517 213.472 152.799 207.493 161.529 194.683C168.033 185.251 170.959 175.619 164.23 169.089C154.55 159.707 144.619 169.915 146.72 158.106C147.946 151.051 145.419 139.017 130.56 141.369C115.701 143.72 122.03 123.305 106.646 122.154Z" fill="url(#paint1_linear)"/>
<path d="M134.538 192.582C125.807 209.795 123.731 221.053 137.589 220.578C151.448 220.102 164.33 182.574 153.299 177.07C145.494 173.267 138.615 184.251 134.538 192.582Z" fill="url(#paint2_linear)"/>
<path d="M136.639 259.031L167.632 254.928C169.509 254.685 171.238 253.781 172.508 252.377C173.778 250.974 174.506 249.164 174.562 247.272L175.862 204.741C175.868 204.511 175.824 204.283 175.733 204.073C175.642 203.862 175.506 203.674 175.334 203.521C175.162 203.369 174.96 203.256 174.74 203.19C174.52 203.124 174.288 203.107 174.061 203.14L117.027 210.545C116.797 210.574 116.576 210.654 116.38 210.778C116.184 210.903 116.018 211.069 115.894 211.265C115.77 211.461 115.69 211.682 115.661 211.912C115.632 212.142 115.654 212.376 115.726 212.597L128.059 253.427C128.599 255.223 129.756 256.77 131.326 257.795C132.896 258.82 134.778 259.258 136.639 259.031Z" fill="url(#paint3_linear)"/>
<path d="M113.4 166.587C123.406 168.239 132.011 171.216 126.133 174.894C120.254 178.571 97.3652 172.392 99.8667 168.113C101.643 165.061 108.597 165.787 113.4 166.587Z" fill="url(#paint4_linear)"/>
<path d="M108.697 135.814C111.699 141.619 114.4 144.396 117.002 140.493C119.604 136.59 111.849 125.632 108.172 127.533C105.57 128.984 107.246 133.037 108.697 135.814Z" fill="url(#paint5_linear)"/>
<path d="M161.179 141.068C159.553 147.548 159.778 151.276 164.305 150.05C168.833 148.824 170.284 135.514 166.232 134.538C163.38 133.913 162.054 138.041 161.179 141.068Z" fill="url(#paint6_linear)"/>
<path d="M176.213 168.289C179.915 163.985 181.216 160.933 177.313 160.083C173.411 159.232 166.957 169.014 169.809 171.341C171.685 172.992 174.562 170.34 176.213 168.289Z" fill="url(#paint7_linear)"/>
<path d="M127.784 162.86C123.806 162.084 121.405 162.309 122.305 165.086C123.206 167.863 131.511 168.339 131.961 165.787C132.286 164.01 129.685 163.235 127.784 162.86Z" fill="url(#paint8_linear)"/>
<path d="M356.921 213.647C353.294 208.068 364.426 201.138 376.683 205.491C375.943 209.102 374.442 212.514 372.28 215.499C369.504 218.976 362.024 221.428 356.921 213.647Z" fill="url(#paint9_linear)"/>
<path d="M349.667 211.321C344.264 207.468 351.993 196.91 365.076 196.51C365.692 200.127 365.547 203.834 364.651 207.393C363.35 211.696 357.296 216.725 349.667 211.321Z" fill="url(#paint10_linear)"/>
<path d="M345.189 210.245C339.236 209.319 341.212 197.736 351.643 192.006C353.607 194.674 354.988 197.726 355.695 200.963C356.371 205.091 353.519 211.521 345.189 210.245Z" fill="url(#paint11_linear)"/>
<path d="M343.488 207.868C338.335 209.469 335.308 199.262 341.537 190.605C344.174 191.985 346.492 193.902 348.341 196.234C350.467 199.212 350.717 205.616 343.488 207.868Z" fill="url(#paint12_linear)"/>
<path d="M343.963 178.496C327.328 161.383 361.474 129.159 407.927 136.265C407.927 136.265 407.927 157.481 399.322 174.293C391.917 188.629 367.177 202.439 343.963 178.496Z" fill="url(#paint13_linear)"/>
<path d="M401.548 139.392C396.588 140.379 391.86 142.298 387.615 145.046C386.531 145.66 385.479 146.328 384.463 147.048C383.41 147.713 382.392 148.432 381.411 149.199L378.559 151.576L377.133 152.777L375.833 154.128C372.273 157.596 368.979 161.326 365.977 165.286L361.599 171.341L357.722 177.771C357.071 178.846 356.346 179.847 355.745 180.973L354.019 184.326L350.542 191.031L344.364 204.916C342.538 209.669 340.536 214.373 338.86 219.202C337.184 224.03 335.483 228.884 333.482 233.712H333.132L336.959 218.701C338.335 213.697 340.111 208.869 341.662 203.965C343.213 199.062 345.464 194.408 347.365 189.604L350.818 182.574L352.544 179.122C353.144 177.971 353.869 176.92 354.52 175.794L358.597 169.214L363.25 163.035C366.464 158.991 370.039 155.248 373.931 151.851L375.357 150.55L376.933 149.4L380.06 147.098C381.086 146.322 382.261 145.772 383.337 145.071C384.43 144.381 385.566 143.763 386.739 143.22C391.326 140.784 396.369 139.327 401.548 138.942V139.392Z" fill="url(#paint14_linear)"/>
<path d="M365.551 164.861C383.687 165.812 385.013 130.11 357.647 107.068C357.647 107.068 345.414 117.651 340.136 131.061C335.683 142.544 340.136 163.56 365.551 164.861Z" fill="url(#paint15_linear)"/>
<path d="M359.298 112.172C360.67 117.333 361.632 122.595 362.174 127.909C362.425 130.56 362.65 133.237 362.725 135.889C362.8 138.541 362.925 141.243 362.9 143.92C362.726 154.627 361.697 165.302 359.823 175.844C359.273 178.346 358.622 181.073 358.022 183.675L357.171 187.578L356.071 191.431L353.869 199.162C353.044 201.663 352.118 204.165 351.193 206.667L349.792 210.42L348.241 214.123L345.064 221.453C343.988 223.955 342.563 226.207 341.437 228.584C340.311 230.96 338.935 233.262 337.635 235.589L337.359 235.464C339.461 230.61 341.737 225.806 343.688 220.903L346.49 213.397L347.891 209.694L349.092 205.917L351.593 198.411L353.669 190.73L354.695 186.902L355.52 183.025C356.071 180.523 356.671 177.871 357.171 175.269C359.15 164.88 360.371 154.361 360.824 143.795C361.381 133.225 360.82 122.624 359.148 112.172H359.298Z" fill="url(#paint16_linear)"/>
<path d="M381.986 151.126C356.971 129.034 401.123 80.3981 466.737 85.3518C466.737 85.3518 469.239 114.974 458.807 139.342C449.977 160.057 417.057 182.099 381.986 151.126Z" fill="url(#paint17_linear)"/>
<path d="M458.232 90.3556C451.363 94.4556 444.769 99.0021 438.495 103.966C435.368 106.468 432.191 108.794 429.215 111.471L424.712 115.299L420.359 119.402L416.032 123.48L411.854 127.708L407.677 131.912C406.276 133.313 405.025 134.864 403.699 136.315C401.198 139.317 398.246 142.069 395.82 145.196L388.315 154.403C385.814 157.531 383.587 160.758 381.236 163.935C380.06 165.537 378.734 167.113 377.734 168.739L374.482 173.743C372.305 177.07 370.029 180.323 367.928 183.75C365.827 187.178 363.925 190.605 361.849 194.008L358.747 199.011L355.996 204.315L350.442 214.923C346.715 222.004 343.688 229.434 339.911 236.615L339.511 236.464L343.838 225.206L345.99 219.577C346.715 217.7 347.415 215.799 348.316 213.998L353.319 203.039L355.821 197.56L358.722 192.281L364.676 181.699C366.702 178.246 368.928 174.869 371.055 171.466L374.282 166.462C375.407 164.786 376.633 163.185 377.784 161.459C380.285 158.231 382.487 154.929 384.913 151.726C394.878 139.032 406.018 127.305 418.183 116.7C430.242 106.087 443.65 97.1108 458.057 90.0053L458.232 90.3556Z" fill="url(#paint18_linear)"/>
<path d="M386.514 185.076C374.682 164.186 416.057 141.268 459.733 160.057C459.733 160.057 454.455 180.848 441.722 195.084C430.841 207.118 403.249 214.423 386.514 185.076Z" fill="url(#paint19_linear)"/>
<path d="M452.754 161.383C447.068 162.347 441.477 163.804 436.044 165.737L431.966 167.113L427.964 168.689C425.287 169.665 422.711 170.941 420.109 172.141C409.773 177.009 399.938 182.875 390.741 189.655L383.862 194.658C381.511 196.31 379.46 198.311 377.233 200.112C375.007 201.914 372.806 203.74 370.804 205.817C368.803 207.893 366.677 209.795 364.551 211.721C362.424 213.647 360.473 215.774 358.472 217.851L352.518 224.13C348.591 228.358 345.014 232.862 340.937 237.115L340.661 236.915C344.188 232.311 347.616 227.608 351.218 223.054L356.921 216.475C358.822 214.273 360.648 212.021 362.75 210.02C366.852 205.892 370.855 201.663 375.257 197.936C377.458 196.059 379.535 194.008 381.886 192.282L388.79 186.978C398.229 180.177 408.378 174.423 419.058 169.815C429.736 165.097 441.106 162.14 452.729 161.058L452.754 161.383Z" fill="url(#paint20_linear)"/>
<path d="M415.982 134.038C418.767 133.446 421.623 133.261 424.462 133.488C427.245 133.656 430.008 134.074 432.717 134.739C435.428 135.415 438.067 136.354 440.596 137.541C443.212 138.789 445.59 140.482 447.626 142.544L447.476 142.795C442.502 140.532 437.315 138.772 431.991 137.541C426.701 136.161 421.34 135.066 415.932 134.263L415.982 134.038Z" fill="url(#paint21_linear)"/>
<path d="M428.014 119.827C430.221 118.868 432.57 118.276 434.968 118.076C437.297 117.839 439.644 117.839 441.972 118.076C444.307 118.354 446.605 118.883 448.826 119.652C451.132 120.413 453.266 121.62 455.105 123.205V123.48C450.743 122.221 446.27 121.383 441.747 120.978C437.23 120.442 432.688 120.141 428.139 120.078L428.014 119.827Z" fill="url(#paint22_linear)"/>
<path d="M401.798 123.38C401.444 120.43 401.444 117.449 401.798 114.499C401.948 113.173 402.048 111.997 402.123 110.621C402.186 109.182 402.111 107.741 401.898 106.317L402.073 106.117C403.078 107.297 403.82 108.676 404.252 110.164C404.683 111.652 404.793 113.215 404.575 114.749C404.196 117.771 403.352 120.716 402.073 123.48L401.798 123.38Z" fill="url(#paint23_linear)"/>
<path d="M419.434 110.02C419.699 107.733 420.254 105.488 421.085 103.34C421.46 102.364 421.785 101.414 422.085 100.488C422.461 99.4418 422.68 98.3459 422.736 97.2357H422.911C423.393 98.3184 423.642 99.4905 423.642 100.676C423.642 101.861 423.393 103.033 422.911 104.116C422.107 106.216 421.031 108.201 419.709 110.02H419.434Z" fill="url(#paint24_linear)"/>
<path d="M352.819 246.972L327.804 235.639C327.203 235.364 326.724 234.879 326.457 234.275C326.189 233.671 326.152 232.991 326.353 232.361L336.059 201.814C336.163 201.451 336.344 201.115 336.587 200.827C336.831 200.54 337.133 200.307 337.473 200.144C337.813 199.981 338.184 199.891 338.561 199.882C338.938 199.872 339.313 199.942 339.661 200.087L371.555 214.548C371.903 214.705 372.213 214.934 372.465 215.22C372.717 215.506 372.905 215.843 373.016 216.208C373.128 216.573 373.16 216.957 373.111 217.335C373.061 217.714 372.932 218.077 372.731 218.401L356.146 245.921C355.812 246.469 355.291 246.878 354.679 247.071C354.068 247.264 353.407 247.229 352.819 246.972Z" fill="url(#paint25_linear)"/>
<path d="M372.18 221.854L333.807 204.34C333.423 204.161 333.115 203.852 332.937 203.467C332.758 203.083 332.721 202.648 332.832 202.239L334.308 196.96C334.376 196.707 334.5 196.472 334.671 196.273C334.841 196.073 335.053 195.914 335.292 195.806C335.532 195.699 335.792 195.645 336.054 195.65C336.316 195.655 336.574 195.718 336.809 195.834L376.683 213.898C376.904 214.005 377.1 214.157 377.258 214.344C377.417 214.531 377.536 214.749 377.606 214.984C377.677 215.219 377.698 215.466 377.668 215.71C377.638 215.953 377.558 216.188 377.433 216.399L374.457 220.978C374.266 221.391 373.921 221.714 373.496 221.877C373.071 222.041 372.599 222.032 372.18 221.854Z" fill="url(#paint26_linear)"/>
<path style="mix-blend-mode:exclusion" opacity="0.3" d="M457.607 163.11V439.391L92.5623 436.163V187.653L457.607 163.11Z" fill="url(#paint27_linear)"/>
<path d="M430.44 178.897V429.208H80.0799V201.138L430.44 178.897Z" fill="url(#paint28_linear)"/>
<path opacity="0.4" d="M171.435 344.22L246.005 342.493V240.017L171.435 243.77V344.22Z" fill="#46CCCC"/>
<path opacity="0.6" d="M182.091 307.442L95.1889 310.319V217.55L182.091 212.447V307.442Z" fill="#7BCAFF"/>
<path d="M165.556 260.958C165.556 277.32 153.224 290.98 138.04 291.63C122.856 292.281 111.073 279.572 111.073 263.434C111.073 247.297 123.131 233.587 138.115 232.787C153.099 231.986 165.556 244.595 165.556 260.958Z" fill="#3A7BD8"/>
<path d="M158.877 261.258C158.888 264.759 158.135 268.221 156.67 271.401C155.206 274.582 153.065 277.404 150.397 279.672C148.876 280.939 147.194 282 145.394 282.824C144.58 283.176 143.744 283.477 142.893 283.725L141.342 284.125C140.289 284.353 139.217 284.478 138.14 284.5C136.077 284.597 134.014 284.343 132.036 283.75C127.728 282.334 123.995 279.56 121.397 275.843C118.799 272.126 117.477 267.667 117.627 263.134C117.585 259.794 118.232 256.481 119.529 253.402C121.456 248.902 124.757 245.128 128.959 242.619C130.632 241.64 132.434 240.899 134.312 240.417C135.555 240.088 136.83 239.895 138.115 239.842C142.344 239.67 146.514 240.874 150.001 243.274C153.487 245.674 156.102 249.14 157.451 253.152C158.415 255.745 158.898 258.492 158.877 261.258Z" fill="#EFF4F4"/>
<path d="M138.115 264.735C137.451 264.735 136.815 264.472 136.346 264.003C135.877 263.534 135.613 262.897 135.613 262.234V247.923C135.613 247.259 135.877 246.623 136.346 246.154C136.815 245.685 137.451 245.421 138.115 245.421C138.778 245.421 139.414 245.685 139.884 246.154C140.353 246.623 140.616 247.259 140.616 247.923V262.209C140.62 262.539 140.557 262.867 140.433 263.174C140.309 263.48 140.125 263.759 139.892 263.994C139.66 264.229 139.383 264.415 139.078 264.543C138.773 264.67 138.445 264.735 138.115 264.735Z" fill="#A9C3EA"/>
<path d="M138.115 264.735C137.564 264.763 137.02 264.607 136.567 264.294C136.114 263.98 135.778 263.525 135.609 263.001C135.441 262.476 135.451 261.91 135.637 261.391C135.823 260.873 136.175 260.43 136.639 260.132L143.518 255.128C143.786 254.931 144.091 254.789 144.415 254.712C144.738 254.634 145.074 254.621 145.402 254.675C145.731 254.728 146.045 254.847 146.327 255.024C146.61 255.2 146.854 255.432 147.045 255.704C147.242 255.972 147.384 256.277 147.462 256.6C147.54 256.924 147.552 257.26 147.499 257.588C147.445 257.917 147.326 258.231 147.15 258.514C146.973 258.796 146.742 259.04 146.47 259.231L139.591 264.235C139.165 264.555 138.647 264.73 138.115 264.735Z" fill="#A9C3EA"/>
<path opacity="0.5" d="M419.709 413.221L72 414.622V189.354L419.709 166.112V413.221Z" fill="#7BCAFF"/>
<path d="M211.834 301.263C207.441 303.302 202.52 303.916 197.761 303.019C193.002 302.121 188.642 299.758 185.293 296.259C181.957 292.798 179.675 288.459 178.714 283.75L190.596 280.497C191.103 283.312 192.599 285.853 194.815 287.66C197.031 289.468 199.82 290.424 202.679 290.355C204.261 290.289 205.816 289.915 207.256 289.254L211.834 301.263Z" fill="url(#paint29_linear)"/>
<path d="M220.214 295.158L219.589 295.784L211.159 286.527C213.678 283.893 215.084 280.389 215.086 276.744C215.134 275.089 214.844 273.44 214.233 271.901C213.621 270.361 212.702 268.963 211.53 267.791C210.359 266.62 208.961 265.7 207.422 265.089C205.882 264.477 204.234 264.187 202.578 264.235C200.192 264.389 197.894 265.199 195.938 266.577C193.983 267.954 192.446 269.845 191.497 272.041L180.565 266.762C181.735 264.171 183.296 261.774 185.193 259.657C187.306 257.125 189.923 255.061 192.877 253.596C195.831 252.13 199.057 251.296 202.351 251.145C205.645 250.994 208.934 251.531 212.009 252.721C215.085 253.91 217.879 255.727 220.214 258.056C224.878 263.107 227.468 269.731 227.468 276.607C227.468 283.483 224.878 290.106 220.214 295.158Z" fill="#EDF4FC"/>
<path d="M190.321 277.645C190.322 278.586 190.414 279.524 190.596 280.447L178.714 283.7C177.533 277.916 178.216 271.907 180.665 266.537L191.597 271.816C190.751 273.642 190.316 275.632 190.321 277.645Z" fill="#BAF4D5"/>
<path d="M219.589 295.759C217.37 298.061 214.74 299.928 211.834 301.263L207.256 289.279C208.713 288.595 210.035 287.655 211.159 286.502L219.589 295.759Z" fill="#D1D9FE"/>
<path d="M225.292 307.793V305.241L220.439 305.391V307.943L225.292 307.793Z" fill="#A6EDC8"/>
<path d="M233.947 307.517V304.94L229.044 305.116V307.667L233.947 307.517Z" fill="#A6EDC8"/>
<path d="M242.602 307.242V304.665L237.7 304.815V307.392L242.602 307.242Z" fill="#A6EDC8"/>
<path d="M239.225 259.632C238.4 259.333 237.503 259.293 236.654 259.517C235.805 259.74 235.045 260.217 234.473 260.883C233.865 261.529 233.456 262.337 233.297 263.209L235.423 263.61C235.54 263.102 235.813 262.643 236.203 262.298C236.593 261.953 237.081 261.738 237.6 261.683C237.873 261.643 238.151 261.643 238.425 261.683L239.225 259.632Z" fill="#EDF4FC"/>
<path d="M240.726 260.582L239.2 262.359C239.433 262.571 239.618 262.83 239.743 263.119C239.868 263.408 239.93 263.72 239.926 264.035C239.93 264.653 239.704 265.251 239.293 265.713C238.882 266.175 238.314 266.469 237.7 266.537C237.283 266.548 236.872 266.438 236.517 266.221C236.162 266.003 235.877 265.687 235.698 265.311L233.747 266.412C233.946 266.86 234.225 267.267 234.573 267.613C234.99 268.028 235.488 268.352 236.037 268.564C236.585 268.777 237.172 268.873 237.76 268.848C238.348 268.822 238.924 268.674 239.452 268.414C239.979 268.154 240.448 267.788 240.826 267.337C241.696 266.422 242.173 265.202 242.154 263.939C242.136 262.677 241.623 261.472 240.726 260.582Z" fill="#FFC550"/>
<path d="M235.373 264.11C235.361 263.943 235.361 263.776 235.373 263.61L233.247 263.209C233.021 264.229 233.144 265.295 233.597 266.237L235.598 265.136C235.456 264.812 235.38 264.463 235.373 264.11Z" fill="#FFC550"/>
<path d="M240.626 260.482C240.218 260.112 239.743 259.823 239.225 259.632L238.425 261.808C238.678 261.911 238.908 262.064 239.1 262.259L240.626 260.482Z" fill="#BAF4D5"/>
<path d="M233.547 294.132C233.867 294.938 234.427 295.626 235.153 296.101C235.878 296.576 236.733 296.814 237.599 296.784C238.496 296.781 239.369 296.502 240.101 295.984L238.925 294.057C238.516 294.363 238.01 294.512 237.5 294.475C236.99 294.438 236.51 294.219 236.149 293.857C235.954 293.641 235.793 293.397 235.673 293.132L233.547 294.132Z" fill="#BAF4D5"/>
<path d="M233.172 292.306C233.172 292.306 233.172 292.306 233.172 292.456L235.348 292.306C235.331 291.66 235.564 291.033 235.999 290.555C236.2 290.338 236.444 290.165 236.715 290.047C236.986 289.929 237.279 289.868 237.574 289.868C237.87 289.868 238.163 289.929 238.434 290.047C238.705 290.165 238.949 290.338 239.15 290.555C239.455 290.886 239.664 291.293 239.757 291.733C239.849 292.174 239.821 292.631 239.676 293.057L241.752 293.707C241.911 293.222 241.996 292.716 242.002 292.206C242.023 291.617 241.923 291.029 241.708 290.48C241.494 289.93 241.169 289.431 240.754 289.011C240.34 288.592 239.844 288.262 239.297 288.041C238.75 287.82 238.164 287.714 237.574 287.728C236.405 287.813 235.309 288.328 234.496 289.173C233.684 290.018 233.212 291.134 233.172 292.306Z" fill="#D1D9FE"/>
<path d="M239.175 293.732C239.063 293.854 238.937 293.964 238.8 294.057L239.976 295.984C240.833 295.369 241.466 294.49 241.777 293.482L239.601 292.831C239.521 293.157 239.376 293.463 239.175 293.732Z" fill="#EDF4FC"/>
<path d="M233.197 292.456C233.197 293.033 233.316 293.604 233.547 294.132L235.548 293.132C235.452 292.866 235.393 292.588 235.373 292.306L233.197 292.456Z" fill="#FFC550"/>
<path d="M239.351 282.274C240.164 281.864 240.851 281.239 241.336 280.468C241.821 279.696 242.086 278.807 242.102 277.895C242.117 277.011 241.873 276.142 241.402 275.393L239.551 276.719C239.816 277.176 239.93 277.706 239.876 278.232C239.822 278.758 239.603 279.253 239.25 279.647C239.047 279.859 238.811 280.036 238.55 280.172L239.351 282.274Z" fill="#D1D9FE"/>
<path d="M237.599 282.649H237.75V280.347C237.446 280.364 237.142 280.317 236.858 280.209C236.573 280.102 236.315 279.935 236.099 279.722C235.698 279.265 235.476 278.678 235.476 278.07C235.476 277.463 235.698 276.876 236.099 276.419C236.375 276.103 236.737 275.873 237.141 275.757C237.545 275.642 237.973 275.646 238.375 275.769L239.1 273.542C238.638 273.407 238.156 273.348 237.675 273.367C236.458 273.45 235.32 273.998 234.496 274.896C233.672 275.795 233.225 276.976 233.247 278.195C233.23 278.776 233.33 279.355 233.542 279.896C233.753 280.437 234.072 280.931 234.478 281.346C234.884 281.762 235.37 282.091 235.906 282.315C236.443 282.539 237.018 282.652 237.599 282.649Z" fill="#BAF4D5"/>
<path d="M239.175 276.369L239.476 276.744L241.327 275.418C240.793 274.568 239.979 273.931 239.025 273.617L238.3 275.844C238.631 275.944 238.931 276.125 239.175 276.369Z" fill="#FFC550"/>
<path d="M237.75 282.649C238.307 282.599 238.849 282.447 239.351 282.198L238.475 280.147C238.225 280.271 237.953 280.347 237.675 280.372L237.75 282.649Z" fill="#EDF4FC"/>
<path d="M430.44 178.922L80.0799 201.138V168.239L430.44 142.82V178.922Z" fill="#D3D3D3"/>
<path d="M423.361 171.816L85.9834 193.858V182.975L423.361 159.932V171.816Z" fill="#F2F2F2"/>
<path d="M91.1615 178.947L85.9834 179.322V173.668L91.1615 173.292V178.947Z" fill="#F9F4EA"/>
<path d="M100.367 178.321L95.1889 178.671V173.017L100.367 172.642V178.321Z" fill="#F9F4EA"/>
<path d="M109.623 177.671L104.419 178.046V172.367L109.623 171.991V177.671Z" fill="#F9F4EA"/>
<path opacity="0.5" d="M235.398 393.581L406.951 391.955V193.407L235.398 203.715V393.581Z" fill="#7BCAFF"/>
<path d="M258.237 246.522C257.083 246.531 255.971 246.091 255.135 245.296C254.666 244.843 254.295 244.298 254.045 243.696C253.796 243.093 253.673 242.446 253.684 241.793V215.824C253.681 214.555 254.16 213.333 255.024 212.404C255.887 211.475 257.072 210.909 258.337 210.82L411.354 202.014C412.003 201.987 412.652 202.092 413.259 202.323C413.867 202.553 414.421 202.905 414.889 203.357C415.357 203.808 415.728 204.35 415.98 204.949C416.233 205.548 416.361 206.192 416.357 206.842V233.837C416.34 235.181 415.814 236.467 414.886 237.438C413.957 238.408 412.695 238.99 411.354 239.066L258.337 246.572L258.237 246.522ZM411.654 204.19H411.504L258.462 213.022C257.77 213.091 257.129 213.417 256.666 213.936C256.202 214.455 255.951 215.129 255.96 215.824V241.793C255.955 242.133 256.019 242.47 256.148 242.784C256.277 243.098 256.468 243.382 256.711 243.62C256.928 243.823 257.184 243.982 257.463 244.085C257.742 244.188 258.039 244.234 258.337 244.22L411.379 236.715C412.127 236.67 412.83 236.343 413.345 235.799C413.861 235.256 414.15 234.537 414.156 233.787V206.742C414.165 206.393 414.1 206.045 413.967 205.722C413.833 205.399 413.633 205.107 413.38 204.866C412.912 204.428 412.295 204.186 411.654 204.19Z" fill="#BBCEFF"/>
<path d="M258.262 290.705C257.093 290.707 255.969 290.248 255.135 289.429C254.668 288.98 254.298 288.439 254.048 287.841C253.799 287.243 253.675 286.599 253.684 285.951V259.957C253.681 258.688 254.16 257.466 255.024 256.537C255.887 255.608 257.072 255.042 258.337 254.953L411.379 247.923C412.043 247.898 412.704 248.011 413.322 248.254C413.94 248.497 414.502 248.864 414.971 249.334C415.441 249.804 415.808 250.365 416.051 250.983C416.294 251.601 416.406 252.263 416.382 252.927V279.847C416.37 281.187 415.845 282.471 414.914 283.435C413.983 284.398 412.718 284.968 411.379 285.026L258.437 290.68L258.262 290.705ZM411.604 250.125L258.587 257.13C257.897 257.193 257.256 257.514 256.793 258.028C256.329 258.543 256.076 259.214 256.086 259.907V285.951C256.08 286.291 256.144 286.628 256.273 286.942C256.402 287.256 256.594 287.54 256.836 287.778C257.292 288.18 257.879 288.402 258.487 288.403L411.379 282.649C412.125 282.611 412.827 282.289 413.344 281.749C413.86 281.21 414.15 280.493 414.156 279.747V252.752C414.165 252.402 414.1 252.054 413.967 251.731C413.833 251.408 413.633 251.116 413.38 250.875C413.148 250.639 412.872 250.451 412.567 250.322C412.262 250.193 411.935 250.126 411.604 250.125Z" fill="#BBCEFF"/>
<path d="M258.312 334.863C257.723 334.867 257.138 334.754 256.593 334.531C256.048 334.307 255.552 333.978 255.135 333.562C254.68 333.124 254.317 332.6 254.068 332.02C253.819 331.44 253.688 330.816 253.684 330.184V304.09C253.681 302.817 254.164 301.591 255.033 300.662C255.902 299.732 257.092 299.169 258.362 299.086L411.404 293.857C412.066 293.84 412.724 293.958 413.339 294.203C413.953 294.448 414.512 294.816 414.98 295.284C415.448 295.753 415.816 296.311 416.061 296.926C416.306 297.541 416.424 298.199 416.407 298.861V325.856C416.369 327.171 415.83 328.422 414.9 329.352C413.97 330.283 412.719 330.822 411.404 330.86L258.437 334.863H258.312ZM411.579 296.134L258.437 301.363C257.751 301.414 257.111 301.724 256.646 302.231C256.181 302.737 255.927 303.402 255.936 304.09V330.184C255.936 330.848 256.199 331.484 256.668 331.953C257.137 332.422 257.774 332.686 258.437 332.686L411.479 328.808C412.218 328.782 412.918 328.47 413.431 327.938C413.944 327.406 414.231 326.695 414.231 325.956V298.761C414.233 298.408 414.166 298.059 414.032 297.733C413.899 297.406 413.703 297.11 413.455 296.859C413.21 296.615 412.916 296.425 412.593 296.3C412.27 296.175 411.925 296.118 411.579 296.134Z" fill="#BBCEFF"/>
<path d="M258.362 379.046C257.763 379.049 257.17 378.934 256.616 378.706C256.062 378.478 255.558 378.143 255.135 377.72C254.667 377.26 254.298 376.711 254.049 376.104C253.799 375.498 253.675 374.848 253.684 374.192V348.223C253.681 346.95 254.164 345.724 255.033 344.795C255.902 343.865 257.092 343.302 258.362 343.219L411.404 339.791C412.063 339.778 412.718 339.894 413.332 340.135C413.946 340.375 414.506 340.735 414.981 341.192C415.449 341.658 415.821 342.211 416.074 342.821C416.327 343.431 416.457 344.085 416.457 344.745V371.84C416.457 373.167 415.93 374.44 414.992 375.378C414.053 376.317 412.781 376.844 411.454 376.844L258.412 378.921L258.362 379.046ZM258.362 376.744L411.404 374.667C412.134 374.648 412.827 374.344 413.337 373.821C413.846 373.297 414.131 372.596 414.131 371.865V344.77C414.134 344.412 414.065 344.056 413.928 343.725C413.79 343.394 413.587 343.094 413.33 342.844C412.812 342.365 412.134 342.097 411.429 342.093L258.412 345.546C258.068 345.545 257.728 345.615 257.412 345.751C257.097 345.888 256.813 346.088 256.578 346.339C256.343 346.59 256.163 346.887 256.048 347.211C255.933 347.535 255.886 347.88 255.91 348.223V374.192C255.901 374.542 255.966 374.889 256.099 375.212C256.233 375.536 256.433 375.827 256.686 376.068C256.901 376.301 257.166 376.482 257.46 376.599C257.754 376.715 258.071 376.765 258.387 376.744H258.362Z" fill="#BBCEFF"/>
<path opacity="0.5" d="M331.706 312.771L397.871 310.77V305.441L331.706 307.542V312.771Z" fill="#7BCAFF"/>
<path opacity="0.5" d="M353.069 321.428L397.871 320.202V314.898L353.069 316.199V321.428Z" fill="#7BCAFF"/>
<path opacity="0.5" d="M336.959 321.903L347.941 321.578V316.349L336.959 316.674V321.903Z" fill="#7BCAFF"/>
<path opacity="0.5" d="M331.706 223.78L397.871 220.252V214.948L331.706 218.551V223.78Z" fill="#7BCAFF"/>
<path opacity="0.5" d="M358.222 231.711L397.871 229.684V224.38L358.222 226.457V231.711Z" fill="#7BCAFF"/>
<path opacity="0.5" d="M312.069 234.063L353.069 231.961V226.732L312.069 228.859V234.063Z" fill="#7BCAFF"/>
<path opacity="0.5" d="M371.18 357.054L397.871 356.579V351.25L371.18 351.8V357.054Z" fill="#7BCAFF"/>
<path opacity="0.5" d="M339.986 357.63L366.252 357.154V351.9L339.986 352.426V357.63Z" fill="#7BCAFF"/>
<path opacity="0.5" d="M353.069 366.736L397.871 366.011V360.682L353.069 361.483V366.736Z" fill="#7BCAFF"/>
<path opacity="0.5" d="M304.915 367.512L347.941 366.812V361.558L304.915 362.308V367.512Z" fill="#7BCAFF"/>
<path d="M266.117 282.824L419.709 276.87C420.751 276.818 421.734 276.37 422.455 275.616C423.176 274.862 423.581 273.86 423.586 272.817V245.671C423.594 245.167 423.498 244.666 423.304 244.2C423.109 243.735 422.822 243.314 422.458 242.964C422.094 242.615 421.662 242.344 421.19 242.168C420.717 241.992 420.213 241.916 419.709 241.944L266.117 249.249C265.135 249.331 264.22 249.782 263.557 250.51C262.893 251.239 262.53 252.191 262.539 253.177V279.221C262.526 279.696 262.609 280.169 262.783 280.61C262.958 281.052 263.221 281.453 263.555 281.79C263.89 282.127 264.289 282.393 264.73 282.57C265.17 282.748 265.642 282.834 266.117 282.824Z" fill="#F6F3FF"/>
<g opacity="0.6">
<path opacity="0.6" d="M349.192 254.978L415.306 252.001V248.048L349.192 251.075V254.978Z" fill="#7BCAFF"/>
<path opacity="0.6" d="M349.192 261.908L415.306 259.056V255.078L349.192 258.005V261.908Z" fill="#7BCAFF"/>
<path opacity="0.6" d="M385.714 267.312L415.306 266.086V262.134L385.714 263.384V267.312Z" fill="#7BCAFF"/>
</g>
<path d="M293.358 271.34L310.493 270.64V252.877L293.358 253.652V271.34Z" fill="url(#paint30_linear)"/>
<path opacity="0.6" d="M273.596 272.166L290.556 271.465V253.802L273.596 254.578V272.166Z" fill="#7BCAFF"/>
</g>
<defs>
<linearGradient id="paint0_linear" x1="152.233" y1="184.169" x2="206.62" y2="125.202" gradientUnits="userSpaceOnUse">
<stop stop-color="#F70F47"/>
<stop offset="1" stop-color="#FFB41D"/>
</linearGradient>
<linearGradient id="paint1_linear" x1="2330.01" y1="5617.11" x2="1278.03" y2="152.356" gradientUnits="userSpaceOnUse">
<stop stop-color="#F70F47"/>
<stop offset="1" stop-color="#FFB41D"/>
</linearGradient>
<linearGradient id="paint2_linear" x1="1411.65" y1="1126.03" x2="806.934" y2="1756.64" gradientUnits="userSpaceOnUse">
<stop stop-color="#F70F47"/>
<stop offset="1" stop-color="#FFB41D"/>
</linearGradient>
<linearGradient id="paint3_linear" x1="156.116" y1="287.048" x2="140.065" y2="165.639" gradientUnits="userSpaceOnUse">
<stop stop-color="#36078B"/>
<stop offset="1" stop-color="#16B1FF"/>
</linearGradient>
<linearGradient id="paint4_linear" x1="948.325" y1="297.429" x2="887.697" y2="560.152" gradientUnits="userSpaceOnUse">
<stop stop-color="#F70F47"/>
<stop offset="1" stop-color="#FFB41D"/>
</linearGradient>
<linearGradient id="paint5_linear" x1="365.863" y1="266.455" x2="161.984" y2="491.87" gradientUnits="userSpaceOnUse">
<stop stop-color="#F70F47"/>
<stop offset="1" stop-color="#FFB41D"/>
</linearGradient>
<linearGradient id="paint6_linear" x1="372.482" y1="1033.89" x2="828.656" y2="458.744" gradientUnits="userSpaceOnUse">
<stop stop-color="#F70F47"/>
<stop offset="1" stop-color="#FFB41D"/>
</linearGradient>
<linearGradient id="paint7_linear" x1="498.296" y1="861.185" x2="767.495" y2="286.352" gradientUnits="userSpaceOnUse">
<stop stop-color="#F70F47"/>
<stop offset="1" stop-color="#FFB41D"/>
</linearGradient>
<linearGradient id="paint8_linear" x1="448.497" y1="237.364" x2="408.298" y2="360.524" gradientUnits="userSpaceOnUse">
<stop stop-color="#F70F47"/>
<stop offset="1" stop-color="#FFB41D"/>
</linearGradient>
<linearGradient id="paint9_linear" x1="3662.85" y1="2530.93" x2="3827.87" y2="2428.03" gradientUnits="userSpaceOnUse">
<stop stop-color="#36078B"/>
<stop offset="1" stop-color="#16B1FF"/>
</linearGradient>
<linearGradient id="paint10_linear" x1="3838.98" y1="2256.98" x2="3981.79" y2="2113.53" gradientUnits="userSpaceOnUse">
<stop stop-color="#36078B"/>
<stop offset="1" stop-color="#16B1FF"/>
</linearGradient>
<linearGradient id="paint11_linear" x1="4091.9" y1="2305.65" x2="4167.49" y2="2155.96" gradientUnits="userSpaceOnUse">
<stop stop-color="#36078B"/>
<stop offset="1" stop-color="#16B1FF"/>
</linearGradient>
<linearGradient id="paint12_linear" x1="4650.04" y1="1716.2" x2="4659.72" y2="1584.84" gradientUnits="userSpaceOnUse">
<stop stop-color="#36078B"/>
<stop offset="1" stop-color="#16B1FF"/>
</linearGradient>
<linearGradient id="paint13_linear" x1="13262.4" y1="7252.2" x2="15232.6" y2="5624.02" gradientUnits="userSpaceOnUse">
<stop stop-color="#36078B"/>
<stop offset="1" stop-color="#16B1FF"/>
</linearGradient>
<linearGradient id="paint14_linear" x1="319.474" y1="214.948" x2="412.438" y2="153.865" gradientUnits="userSpaceOnUse">
<stop offset="0.48" stop-color="#36078B"/>
<stop offset="1" stop-color="#16B1FF"/>
</linearGradient>
<linearGradient id="paint15_linear" x1="4981.23" y1="2959.21" x2="4532.65" y2="1517.39" gradientUnits="userSpaceOnUse">
<stop stop-color="#36078B"/>
<stop offset="1" stop-color="#16B1FF"/>
</linearGradient>
<linearGradient id="paint16_linear" x1="3247.29" y1="7443.14" x2="478.908" y2="3322.24" gradientUnits="userSpaceOnUse">
<stop offset="0.48" stop-color="#36078B"/>
<stop offset="1" stop-color="#16B1FF"/>
</linearGradient>
<linearGradient id="paint17_linear" x1="11912.9" y1="6840.32" x2="15663" y2="3466.87" gradientUnits="userSpaceOnUse">
<stop stop-color="#36078B"/>
<stop offset="1" stop-color="#16B1FF"/>
</linearGradient>
<linearGradient id="paint18_linear" x1="12298.3" y1="7863.23" x2="20288.3" y2="3010.6" gradientUnits="userSpaceOnUse">
<stop offset="0.48" stop-color="#36078B"/>
<stop offset="1" stop-color="#16B1FF"/>
</linearGradient>
<linearGradient id="paint19_linear" x1="8320.01" y1="5262.64" x2="10540.6" y2="4001.31" gradientUnits="userSpaceOnUse">
<stop stop-color="#36078B"/>
<stop offset="1" stop-color="#16B1FF"/>
</linearGradient>
<linearGradient id="paint20_linear" x1="12067.8" y1="4213.36" x2="17099.6" y2="1802.29" gradientUnits="userSpaceOnUse">
<stop offset="0.48" stop-color="#36078B"/>
<stop offset="1" stop-color="#16B1FF"/>
</linearGradient>
<linearGradient id="paint21_linear" x1="4861.02" y1="359.105" x2="4909.38" y2="236.995" gradientUnits="userSpaceOnUse">
<stop stop-color="#36078B"/>
<stop offset="1" stop-color="#16B1FF"/>
</linearGradient>
<linearGradient id="paint22_linear" x1="4357.32" y1="214.527" x2="4369.47" y2="156.208" gradientUnits="userSpaceOnUse">
<stop stop-color="#36078B"/>
<stop offset="1" stop-color="#16B1FF"/>
</linearGradient>
<linearGradient id="paint23_linear" x1="813.18" y1="362.741" x2="857.563" y2="345.083" gradientUnits="userSpaceOnUse">
<stop stop-color="#36078B"/>
<stop offset="1" stop-color="#16B1FF"/>
</linearGradient>
<linearGradient id="paint24_linear" x1="1000.69" y1="217.154" x2="1031.72" y2="203.6" gradientUnits="userSpaceOnUse">
<stop stop-color="#36078B"/>
<stop offset="1" stop-color="#16B1FF"/>
</linearGradient>
<linearGradient id="paint25_linear" x1="354.393" y1="210.184" x2="341.809" y2="237.936" gradientUnits="userSpaceOnUse">
<stop stop-color="#2C27CE"/>
<stop offset="1" stop-color="#EF1D68"/>
</linearGradient>
<linearGradient id="paint26_linear" x1="5644.5" y1="1347.15" x2="5644.5" y2="1207.53" gradientUnits="userSpaceOnUse">
<stop stop-color="#2C27CE"/>
<stop offset="1" stop-color="#EF1D68"/>
</linearGradient>
<linearGradient id="paint27_linear" x1="3093.23" y1="24044.8" x2="56364.1" y2="24044.8" gradientUnits="userSpaceOnUse">
<stop stop-color="#2C27CE"/>
<stop offset="1" stop-color="#EF1D68"/>
</linearGradient>
<linearGradient id="paint28_linear" x1="80.0799" y1="304.065" x2="430.44" y2="304.065" gradientUnits="userSpaceOnUse">
<stop offset="0.35" stop-color="#36078B"/>
<stop offset="1" stop-color="#16B1FF"/>
</linearGradient>
<linearGradient id="paint29_linear" x1="166.957" y1="264.26" x2="178.791" y2="275.792" gradientUnits="userSpaceOnUse">
<stop stop-color="#FEA600"/>
<stop offset="1" stop-color="#EF1829"/>
</linearGradient>
<linearGradient id="paint30_linear" x1="1642.59" y1="1249.74" x2="1898.46" y2="1552.43" gradientUnits="userSpaceOnUse">
<stop stop-color="#FEA600"/>
<stop offset="1" stop-color="#EF1829"/>
</linearGradient>
<clipPath id="clip0">
<rect width="467" height="419" fill="white"/>
</clipPath>
</defs>
</svg>
