<svg xmlns="http://www.w3.org/2000/svg" viewBox="0 0 141.49 120.69"><defs><style>.cls-1{fill:#f8f4d7;}</style></defs><title>Ресурс 8</title><g id="Слой_2" data-name="Слой 2"><g id="Objects"><polygon class="cls-1" points="21.49 32.38 26.8 38.83 29.09 30.37 35.83 27.5 29.81 23.34 29.09 15.32 22.78 20.48 15.04 18.33 17.76 25.21 12.74 32.38 21.49 32.38"/><polygon class="cls-1" points="41.7 18.39 46.41 15.31 50.87 16.8 49.75 12.24 52.83 8.08 47.6 7.87 44.8 3.54 43.17 8 37.71 9.31 41.91 13.04 41.7 18.39"/><polygon class="cls-1" points="11.5 57.38 16.21 54.29 20.67 55.79 19.55 51.22 22.63 47.06 17.4 46.85 14.6 42.52 12.97 46.99 7.51 48.29 11.71 52.02 11.5 57.38"/><polygon class="cls-1" points="43.19 36.34 40.93 32.84 39.62 36.44 35.22 37.49 38.6 40.5 38.44 44.82 42.23 42.33 45.83 43.53 44.92 39.86 47.41 36.51 43.19 36.34"/><polygon class="cls-1" points="52.83 38.15 61.58 38.15 66.88 44.6 69.17 36.14 75.91 33.27 69.89 29.12 69.17 21.09 62.87 26.25 55.12 24.1 57.85 30.98 52.83 38.15"/><polygon class="cls-1" points="32.44 50.44 31.26 48.62 30.58 50.5 28.28 51.04 30.05 52.61 29.96 54.87 31.94 53.57 33.82 54.2 33.35 52.28 34.64 50.53 32.44 50.44"/><polygon class="cls-1" points="24.21 6.69 26.19 5.4 28.07 6.03 27.59 4.11 28.89 2.35 26.69 2.27 25.51 0.44 24.83 2.32 22.53 2.87 24.29 4.44 24.21 6.69"/><polygon class="cls-1" points="3.66 26.04 5.54 26.67 5.07 24.75 6.36 23 4.16 22.91 2.98 21.09 2.3 22.97 0 23.51 1.77 25.08 1.68 27.34 3.66 26.04"/><polygon class="cls-1" points="60.39 54.09 55.16 53.88 52.36 49.54 50.73 54.01 45.27 55.31 49.47 59.04 49.27 64.4 53.97 61.32 58.43 62.81 57.31 58.25 60.39 54.09"/><polygon class="cls-1" points="33.08 59.37 26.78 64.53 19.03 62.38 21.76 69.26 16.74 76.43 25.49 76.43 30.79 82.88 33.08 74.42 39.82 71.56 33.8 67.4 33.08 59.37"/><polygon class="cls-1" points="72.37 53.03 71.19 51.2 70.5 53.08 68.21 53.63 69.97 55.2 69.89 57.45 71.87 56.16 73.74 56.78 73.27 54.87 74.57 53.12 72.37 53.03"/><polygon class="cls-1" points="65.48 18.39 70.52 13.82 76.96 14.76 73.86 8.68 76.24 3.5 70.59 4.26 65.98 0 65.04 6.28 59.45 9.09 64.62 11.63 65.48 18.39"/><polygon class="cls-1" points="80.2 30.2 82.19 28.9 84.06 29.53 83.59 27.61 84.88 25.86 82.68 25.77 81.5 23.95 80.82 25.83 78.52 26.38 80.29 27.94 80.2 30.2"/><polygon class="cls-1" points="84.42 46.88 84.22 52.24 88.92 49.16 93.38 50.65 92.26 46.09 95.34 41.93 90.11 41.72 87.31 37.39 85.69 41.85 80.22 43.16 84.42 46.88"/><polygon class="cls-1" points="46.25 77.97 45.07 76.15 44.39 78.03 42.09 78.57 43.85 80.14 43.77 82.4 45.75 81.1 47.63 81.73 47.15 79.81 48.45 78.06 46.25 77.97"/><polygon class="cls-1" points="63.79 84.8 69.62 80.98 75.14 82.83 73.75 77.18 77.57 72.03 71.09 71.77 67.62 66.41 65.61 71.94 58.85 73.55 64.04 78.17 63.79 84.8"/><polygon class="cls-1" points="9.54 63.19 7.34 63.1 6.17 61.27 5.48 63.15 3.18 63.7 4.95 65.27 4.86 67.53 6.84 66.23 8.72 66.86 8.25 64.94 9.54 63.19"/><polygon class="cls-1" points="88.76 64.76 87.58 62.94 86.9 64.82 84.6 65.37 86.37 66.94 86.28 69.19 88.26 67.89 90.14 68.52 89.67 66.6 90.96 64.85 88.76 64.76"/><polygon class="cls-1" points="95.77 73.04 89.46 78.2 81.71 76.05 84.44 82.94 79.42 90.11 88.17 90.11 93.47 96.56 95.77 88.1 102.5 85.23 96.48 81.07 95.77 73.04"/><polygon class="cls-1" points="19.07 87.22 16.27 82.88 14.64 87.35 9.18 88.65 13.38 92.38 13.18 97.74 17.88 94.66 22.34 96.15 21.22 91.59 24.3 87.43 19.07 87.22"/><polygon class="cls-1" points="33.35 98.28 34.64 96.53 32.44 96.44 31.27 94.61 30.58 96.49 28.28 97.04 30.05 98.61 29.96 100.86 31.94 99.57 33.82 100.2 33.35 98.28"/><polygon class="cls-1" points="56.87 90.86 51.22 91.62 46.6 87.36 45.67 93.64 40.08 96.45 45.25 98.99 46.1 105.75 51.15 101.18 57.58 102.12 54.48 96.04 56.87 90.86"/><polygon class="cls-1" points="80.24 92.94 72.79 99.03 63.66 96.49 66.87 104.61 60.95 113.07 71.27 113.07 77.53 120.69 80.24 110.7 88.19 107.32 81.08 102.42 80.24 92.94"/><polygon class="cls-1" points="36.81 110.74 35.63 108.92 34.95 110.8 32.65 111.34 34.41 112.91 34.33 115.17 36.31 113.87 38.19 114.5 37.72 112.58 39.01 110.83 36.81 110.74"/><polygon class="cls-1" points="103.48 59.21 102.31 57.39 101.62 59.27 99.32 59.82 101.09 61.38 101 63.64 102.99 62.34 104.86 62.97 104.39 61.05 105.69 59.3 103.48 59.21"/><polygon class="cls-1" points="96.39 14.09 98.37 12.79 100.24 13.42 99.77 11.5 101.07 9.75 98.87 9.66 97.69 7.84 97 9.72 94.71 10.27 96.47 11.84 96.39 14.09"/><polygon class="cls-1" points="115.6 31.63 110.38 27.18 111.01 20.44 105.72 23.72 99.03 20.63 100.33 27.88 95.77 33.23 103.12 33.87 106.5 39.03 109.05 33.42 115.6 31.63"/><polygon class="cls-1" points="126.81 52.84 133.55 49.97 127.53 45.82 126.81 37.79 120.5 42.95 112.76 40.8 115.48 47.68 110.47 54.85 119.21 54.85 124.52 61.3 126.81 52.84"/><polygon class="cls-1" points="110.27 70.14 109.58 72.02 107.29 72.56 109.05 74.13 108.97 76.39 110.95 75.09 112.83 75.72 112.35 73.8 113.65 72.05 111.45 71.96 110.27 70.14"/><polygon class="cls-1" points="98.87 103.67 97.69 101.85 97 103.73 94.71 104.27 96.47 105.84 96.39 108.09 98.37 106.8 100.24 107.43 99.77 105.51 101.07 103.76 98.87 103.67"/><polygon class="cls-1" points="135.84 76.46 135.17 68.94 129.26 73.78 122.01 71.76 124.56 78.21 119.86 84.92 128.06 84.92 133.03 90.97 135.17 83.04 141.49 80.36 135.84 76.46"/><polygon class="cls-1" points="111.45 93.31 110.27 91.49 109.58 93.37 107.29 93.92 109.05 95.49 108.97 97.74 110.95 96.44 112.83 97.07 112.35 95.15 113.65 93.4 111.45 93.31"/></g></g></svg>