<svg xmlns="http://www.w3.org/2000/svg" viewBox="0 0 175.01 187.55"><defs><style>.cls-1{fill:#afaeac;}.cls-2{fill:#898785;}.cls-3{fill:#67534f;}.cls-4{fill:#473835;}.cls-5{fill:#898784;}.cls-6{fill:#473633;}</style></defs><title>Ресурс 6</title><g id="Слой_2" data-name="Слой 2"><g id="Objects"><polygon class="cls-1" points="135.9 183.24 88.31 71.12 82.83 73.45 77.35 71.12 29.76 183.24 39.92 187.55 82.83 86.44 125.74 187.55 135.9 183.24"/><polygon class="cls-2" points="85.26 72.42 132.38 184.74 135.9 183.24 88.31 71.12 85.26 72.42"/><polygon class="cls-2" points="37.51 186.53 39.92 187.55 82.83 86.44 82.83 78.16 37.51 186.53"/><rect class="cls-3" x="150.54" y="65.97" width="14.11" height="31.99" transform="translate(29.66 205.2) rotate(-71.41)"/><rect class="cls-4" x="158.15" y="60.59" width="2.64" height="31.9" transform="translate(36.07 203.28) rotate(-71.4)"/><rect class="cls-1" x="120.77" y="57.29" width="22.06" height="31.99" transform="translate(20.32 174.84) rotate(-71.4)"/><polygon class="cls-5" points="127.7 60.27 127.7 66.45 148.28 74.48 148.28 74.48 150.48 67.93 127.7 60.27"/><rect class="cls-1" x="-13.72" y="24.01" width="61.78" height="15.44" transform="translate(-18.39 37.89) rotate(-71.4)"/><polygon class="cls-2" points="19.7 0 12.34 21.86 12.34 21.86 26.58 27.5 27.2 26.15 34.34 4.92 19.7 0"/><polygon class="cls-3" points="31.99 11.89 16.98 56.51 121.09 86.1 131.41 55.43 31.99 11.89"/><polygon class="cls-6" points="31.99 11.89 26.73 27.55 127.7 66.45 127.7 66.45 131.41 55.43 31.99 11.89"/></g></g></svg>