<svg xmlns="http://www.w3.org/2000/svg" viewBox="0 0 119.84 119.84"><defs><style>.cls-1{fill:#f05e2a;}.cls-2{fill:#d34c2d;}.cls-3{fill:#b63f26;}</style></defs><title>Ресурс 2</title><g id="Слой_2" data-name="Слой 2"><g id="Objects"><path class="cls-1" d="M119.84,59.92A59.92,59.92,0,1,1,59.92,0,59.92,59.92,0,0,1,119.84,59.92Z"/><path class="cls-2" d="M119.84,59.92A60,60,0,0,0,45.1,1.85c.15.07,70.61,32.73,38.28,113.21A59.93,59.93,0,0,0,119.84,59.92Z"/><path class="cls-3" d="M28.27,20.58c-5.75,3.82-5.9,9-3.92,10.23,3.55,2.13,9.93-3.27,13.5-6.51C42.44,20.14,35.6,15.72,28.27,20.58Z"/><path class="cls-3" d="M17.52,52.11a3.15,3.15,0,0,0,2.23,4.76c3.56.62,5.14-1.69,4.12-4.82C22.94,49.18,18.81,50.1,17.52,52.11Z"/><path class="cls-3" d="M47.77,37.43c-7.92,5.06-10.32,13,0,12s17.08-8.43,13.77-12C58.6,34.31,51.57,35,47.77,37.43Z"/><path class="cls-3" d="M62.64,9.12c-2.63.8-3.45,5.25,0,5.73,3.88.54,7.13.41,7.21-2.94C69.94,8.31,65.85,8.14,62.64,9.12Z"/><path class="cls-3" d="M86,28.31c-7,1.41-12.3,7-4.27,9.81s24.24.05,18.16-6.06C96.23,28.41,89.51,27.59,86,28.31Z"/><path class="cls-3" d="M76.73,60.16c-2.73,1.59-6.17,5.62,0,4.58,5.58-.94,9.56-2.74,9.39-4.37C85.82,57.33,80.12,58.19,76.73,60.16Z"/><path class="cls-3" d="M28.77,77.92c-.89,8.86,4.29,19.63,10.57,11.13,5.53-7.49,7-16.75,0-17.5C31.74,70.74,29.18,73.93,28.77,77.92Z"/><path class="cls-3" d="M63.19,88.18c-.46,2.75-1,7.1,3.13,6.12,4.8-1.12,3.72-7,3-8.34C68.19,83.68,63.8,84.48,63.19,88.18Z"/><path class="cls-3" d="M94.19,75.05c-3.5,7.07-3.44,12.88,4,8.25S106.1,67,102.44,67.59C97.93,68.28,94.19,75.05,94.19,75.05Z"/><path class="cls-3" d="M45.49,101.16c-2.75,1.42-3.32,6.43,1.28,8.26,2.19.87,9.49-.62,7.86-5.23C53.24,100.27,47.22,100.27,45.49,101.16Z"/></g></g></svg>