<svg xmlns="http://www.w3.org/2000/svg" viewBox="0 0 126.35 126.36"><defs><style>.cls-1{fill:#f48237;}.cls-2{fill:#f9b24e;}.cls-3{fill:#f7a456;}.cls-4{fill:#ee563d;}.cls-5{fill:#d36229;}.cls-6{fill:#d68627;}.cls-7{fill:#d35b18;}.cls-8{fill:#d67422;}.cls-9{fill:#d3321c;}.cls-10{fill:#d38322;}.cls-11{fill:#c65414;}.cls-12{fill:#e27820;}.cls-13{fill:#bf3725;}.cls-14{fill:#d3892f;}.cls-15{fill:#b24e1d;}</style></defs><title>Ресурс 3</title><g id="Слой_2" data-name="Слой 2"><g id="Objects"><path class="cls-1" d="M126.35,63.18A63.18,63.18,0,1,1,63.18,0,63.18,63.18,0,0,1,126.35,63.18Z"/><path class="cls-2" d="M93.41,118.67a63.18,63.18,0,1,0-86.65-27S33.88,113.84,93.41,118.67Z"/><path class="cls-1" d="M115.62,98.42A63.17,63.17,0,1,0,3.44,83.78C54.27,105.15,94.87,102,115.62,98.42Z"/><path class="cls-3" d="M63.18,0A63.18,63.18,0,0,0,0,63.18c0,1.57.06,3.12.17,4.65,3.45,3.61,10.26,8.92,25.94,12.59,15.94,3.73,18.94,3.4,41.35,10.18s31.41,1.59,41.4,2a49.84,49.84,0,0,0,10.51-.55A63.21,63.21,0,0,0,63.18,0Z"/><path class="cls-4" d="M63.18,0A63.19,63.19,0,0,0,.06,60.4h0S37.52,90.08,122.19,85.76h0A63.21,63.21,0,0,0,63.18,0Z"/><path class="cls-2" d="M63.18,0A63.19,63.19,0,0,0,.92,52.4c6.94,3.39,53,23.95,125.43,11v-.26A63.18,63.18,0,0,0,63.18,0Z"/><path class="cls-1" d="M8.73,31.12h0s42,28.8,117.46,27.49A63.18,63.18,0,0,0,8.73,31.12Z"/><path class="cls-3" d="M10.9,27.69S42.54,38.86,74.74,38.78c28.26-.06,42.13,4.11,49.09,6.66A63.2,63.2,0,0,0,10.9,27.69Z"/><path class="cls-4" d="M78,34.19c21.7,0,33.13,3.31,43.47,4.59a63.19,63.19,0,0,0-107-15.85C29.62,28.76,56.29,34.19,78,34.19Z"/><path class="cls-2" d="M117.62,31.12a63.2,63.2,0,0,0-87.14-22h0s26.39,14.87,87.14,22Z"/><path class="cls-1" d="M36.11,6.08c13.66,6.6,35.16,13.32,71.27,12a63.2,63.2,0,0,0-71.27-12Z"/><path class="cls-5" d="M68.79.26c.25.49,42.72,82.87-28.28,121.89A63.17,63.17,0,1,0,68.79.26Z"/><path class="cls-6" d="M126.2,59c0-.7-.09-1.39-.16-2.08,0-.42-.1-.83-.15-1.25-.07-.61-.14-1.22-.23-1.83-.07-.45-.15-.88-.22-1.32s-.2-1.15-.31-1.71-.2-.91-.3-1.36-.24-1.08-.37-1.62-.24-.92-.37-1.38-.28-1-.44-1.54-.29-.92-.44-1.39-.32-1-.5-1.47-.34-.93-.51-1.39-.37-.93-.55-1.4l-.6-1.39c-.19-.45-.39-.89-.6-1.33s-.44-.93-.67-1.4-.42-.83-.64-1.24-.5-.94-.76-1.41-.44-.77-.66-1.15-.56-.95-.85-1.42-.45-.7-.68-1.05-.63-1-1-1.45l-.67-.93c-.35-.49-.71-1-1.07-1.47l-.62-.79c-.41-.51-.81-1-1.23-1.53l-.5-.58c-.48-.56-1-1.11-1.46-1.65l-.21-.23A63.29,63.29,0,0,0,94,8.06L93.92,8q-1.17-.66-2.37-1.26l-.22-.11c-.79-.39-1.58-.76-2.38-1.12l-.28-.13c-.79-.35-1.6-.68-2.41-1L86,4.25c-.81-.31-1.62-.61-2.45-.89l-.32-.11c-.83-.27-1.66-.53-2.51-.78l-.31-.08c-.85-.25-1.71-.47-2.58-.67l-.28-.07c-.88-.2-1.77-.39-2.67-.56l-.23,0C73.69.88,72.76.73,71.83.6H71.7Q70.25.4,68.79.26C69,.72,105.23,71,54.92,112.45a235.29,235.29,0,0,0,38.48,6.22c.75-.41,1.49-.84,2.23-1.28l.71-.44c.59-.37,1.18-.74,1.76-1.13l.53-.35c.72-.48,1.42-1,2.11-1.5l.63-.47c.54-.41,1.07-.83,1.6-1.26l.57-.46c.66-.55,1.31-1.11,1.95-1.69l.52-.49c.5-.46,1-.93,1.49-1.41l.55-.55c.61-.61,1.21-1.24,1.79-1.87l.39-.45c.48-.53.94-1.07,1.4-1.61l.51-.62c.55-.67,1.09-1.36,1.62-2,.07-.11.15-.21.22-.31.46-.63.91-1.26,1.35-1.9l.45-.66c.44-.67.88-1.35,1.3-2l.15-.23c.46-.76.9-1.53,1.32-2.3.13-.23.25-.46.37-.69.36-.66.7-1.33,1-2l.22-.45c.39-.8.75-1.61,1.1-2.43.1-.22.19-.45.28-.68.28-.67.55-1.36.81-2l.22-.57c.3-.84.59-1.7.86-2.56.07-.21.13-.42.19-.63.22-.71.42-1.42.61-2.15l.18-.66c.22-.88.43-1.77.62-2.67,0-.18.07-.36.1-.54.15-.76.29-1.53.41-2.3,0-.24.08-.48.11-.72q.21-1.38.36-2.79l0-.35c.08-.84.14-1.68.19-2.53,0-.25,0-.5,0-.76,0-1,.07-1.92.07-2.89s0-2.12-.08-3.17C126.26,59.66,126.22,59.32,126.2,59Z"/><path class="cls-7" d="M126.2,59c0-.7-.09-1.39-.16-2.08,0-.42-.1-.83-.15-1.25-.07-.61-.14-1.22-.23-1.83-.07-.45-.15-.88-.22-1.32s-.2-1.15-.31-1.71-.2-.91-.3-1.36-.24-1.08-.37-1.62-.24-.92-.37-1.38-.28-1-.44-1.54-.29-.92-.44-1.39-.32-1-.5-1.47-.34-.93-.51-1.39-.37-.93-.55-1.4l-.6-1.39c-.19-.45-.39-.89-.6-1.33s-.44-.93-.67-1.4-.42-.83-.64-1.24-.5-.94-.76-1.41-.44-.77-.66-1.15-.56-.95-.85-1.42-.45-.7-.68-1.05-.63-1-1-1.45l-.67-.93c-.35-.49-.71-1-1.07-1.47l-.62-.79c-.41-.51-.81-1-1.23-1.53l-.5-.58c-.48-.56-1-1.11-1.46-1.65l-.21-.23A63.29,63.29,0,0,0,94,8.06L93.92,8q-1.17-.66-2.37-1.26l-.22-.11c-.79-.39-1.58-.76-2.38-1.12l-.28-.13c-.79-.35-1.6-.68-2.41-1L86,4.25c-.81-.31-1.62-.61-2.45-.89l-.32-.11c-.83-.27-1.66-.53-2.51-.78l-.31-.08c-.85-.25-1.71-.47-2.58-.67l-.28-.07c-.88-.2-1.77-.39-2.67-.56l-.23,0C73.69.88,72.76.73,71.83.6H71.7Q70.25.4,68.79.26c.21.41,30,58.16-1.93,99.86a182.47,182.47,0,0,0,48.76-1.7q.73-1.11,1.44-2.25l.41-.69c.34-.58.68-1.16,1-1.74l.42-.75c.39-.73.77-1.47,1.13-2.22l.12-.24c.4-.82.77-1.65,1.13-2.49.11-.26.21-.51.31-.77q.39-.93.75-1.89l.3-.8c.29-.81.57-1.64.84-2.47a1.09,1.09,0,0,1,0-.17c.28-.88.53-1.78.76-2.68.07-.27.14-.54.2-.81.17-.67.33-1.35.47-2l.18-.83c.18-.9.34-1.81.48-2.72,0,0,0-.05,0-.08.14-.94.26-1.89.36-2.84,0-.28.05-.56.08-.84.06-.71.12-1.43.16-2.15,0-.28,0-.57,0-.85,0-1,.07-2,.07-2.93s0-2.12-.08-3.17C126.26,59.66,126.22,59.32,126.2,59Z"/><path class="cls-8" d="M126.2,59c0-.7-.09-1.39-.16-2.08,0-.42-.1-.83-.15-1.25-.07-.61-.14-1.22-.23-1.83-.07-.45-.15-.88-.22-1.32s-.2-1.15-.31-1.71-.2-.91-.3-1.36-.24-1.08-.37-1.62-.24-.92-.37-1.38-.28-1-.44-1.54-.29-.92-.44-1.39-.32-1-.5-1.47-.34-.93-.51-1.39-.37-.93-.55-1.4l-.6-1.39c-.19-.45-.39-.89-.6-1.33s-.44-.93-.67-1.4-.42-.83-.64-1.24-.5-.94-.76-1.41-.44-.77-.66-1.15-.56-.95-.85-1.42-.45-.7-.68-1.05-.63-1-1-1.45l-.67-.93c-.35-.49-.71-1-1.07-1.47l-.62-.79c-.41-.51-.81-1-1.23-1.53l-.5-.58c-.48-.56-1-1.11-1.46-1.65l-.21-.23A63.29,63.29,0,0,0,94,8.06L93.92,8q-1.17-.66-2.37-1.26l-.22-.11c-.79-.39-1.58-.76-2.38-1.12l-.28-.13c-.79-.35-1.6-.68-2.41-1L86,4.25c-.81-.31-1.62-.61-2.45-.89l-.32-.11c-.83-.27-1.66-.53-2.51-.78l-.31-.08c-.85-.25-1.71-.47-2.58-.67l-.28-.07c-.88-.2-1.77-.39-2.67-.56l-.23,0C73.69.88,72.76.73,71.83.6H71.7Q70.25.4,68.79.26c.2.39,26.28,51,3.49,91.66,18.94,4.71,27.34.31,36.58.71a49.68,49.68,0,0,0,10.49-.55c.23-.45.47-.89.69-1.34a2.4,2.4,0,0,1,.11-.23c.39-.8.75-1.62,1.11-2.45.07-.17.15-.35.22-.53.34-.81.67-1.63,1-2.46.06-.15.12-.32.17-.48.3-.82.58-1.64.85-2.48l.06-.19c.27-.87.51-1.75.75-2.64,0-.18.09-.36.14-.55.22-.87.42-1.74.61-2.63,0-.17.06-.34.1-.51.18-.89.34-1.8.48-2.71,0,0,0-.07,0-.1q.21-1.41.36-2.82c0-.18,0-.36.05-.54.1-.92.17-1.85.22-2.78,0-.18,0-.35,0-.53,0-1,.07-2,.07-2.93s0-2.12-.08-3.17C126.26,59.66,126.22,59.32,126.2,59Z"/><path class="cls-9" d="M126.2,59c0-.7-.09-1.39-.16-2.08,0-.42-.1-.83-.15-1.25-.07-.61-.14-1.22-.23-1.83-.07-.45-.15-.88-.22-1.32s-.2-1.15-.31-1.71-.2-.91-.3-1.36-.24-1.08-.37-1.62-.24-.92-.37-1.38-.28-1-.44-1.54-.29-.92-.44-1.39-.32-1-.5-1.47-.34-.93-.51-1.39-.37-.93-.55-1.4l-.6-1.39c-.19-.45-.39-.89-.6-1.33s-.44-.93-.67-1.4-.42-.83-.64-1.24-.5-.94-.76-1.41-.44-.77-.66-1.15-.56-.95-.85-1.42-.45-.7-.68-1.05-.63-1-1-1.45l-.67-.93c-.35-.49-.71-1-1.07-1.47l-.62-.79c-.41-.51-.81-1-1.23-1.53l-.5-.58c-.48-.56-1-1.11-1.46-1.65l-.21-.23A63.29,63.29,0,0,0,94,8.06L93.92,8q-1.17-.66-2.37-1.26l-.22-.11c-.79-.39-1.58-.76-2.38-1.12l-.28-.13c-.79-.35-1.6-.68-2.41-1L86,4.25c-.81-.31-1.62-.61-2.45-.89l-.32-.11c-.83-.27-1.66-.53-2.51-.78l-.31-.08c-.85-.25-1.71-.47-2.58-.67l-.28-.07c-.88-.2-1.77-.39-2.67-.56l-.23,0C73.69.88,72.76.73,71.83.6H71.7Q70.25.4,68.79.26c.18.37,23.3,45.21,7,84.4a295.52,295.52,0,0,0,46.38,1.1c0-.11.09-.22.14-.34l.54-1.52c.15-.43.3-.86.43-1.29s.32-1,.47-1.5l.39-1.37c.13-.49.26-1,.38-1.48s.23-1,.34-1.47.21-1,.3-1.44.2-1.06.28-1.59.16-.92.23-1.38.15-1.16.22-1.74c0-.42.11-.85.15-1.28q.09-1,.15-2c0-.35.06-.7.08-1.06,0-1,.07-2.07.07-3.11s0-2.12-.08-3.17C126.26,59.66,126.22,59.32,126.2,59Z"/><path class="cls-10" d="M126.35,63.44v-.26c0-1.06,0-2.12-.08-3.17,0-.35,0-.69-.07-1,0-.7-.09-1.39-.16-2.08,0-.42-.1-.83-.15-1.25-.07-.61-.14-1.22-.23-1.83-.07-.45-.15-.88-.22-1.32s-.2-1.15-.31-1.71-.2-.91-.3-1.36-.24-1.08-.37-1.62-.24-.92-.37-1.38-.28-1-.44-1.54-.29-.92-.44-1.39-.32-1-.5-1.47-.34-.93-.51-1.39-.37-.93-.55-1.4l-.6-1.39c-.19-.45-.39-.89-.6-1.33s-.44-.93-.67-1.4-.42-.83-.64-1.24-.5-.94-.76-1.41-.44-.77-.66-1.15-.56-.95-.85-1.42-.45-.7-.68-1.05-.63-1-1-1.45l-.67-.93c-.35-.49-.71-1-1.07-1.47l-.62-.79c-.41-.51-.81-1-1.23-1.53l-.5-.58c-.48-.56-1-1.11-1.46-1.65l-.21-.23A63.29,63.29,0,0,0,94,8.06L93.92,8q-1.17-.66-2.37-1.26l-.22-.11c-.79-.39-1.58-.76-2.38-1.12l-.28-.13c-.79-.35-1.6-.68-2.41-1L86,4.25c-.81-.31-1.62-.61-2.45-.89l-.32-.11c-.83-.27-1.66-.53-2.51-.78l-.31-.08c-.85-.25-1.71-.47-2.58-.67l-.28-.07c-.88-.2-1.77-.39-2.67-.56l-.23,0C73.69.88,72.76.73,71.83.6H71.7Q70.25.4,68.79.26c.16.31,17.15,33.3,11.76,67.39A264.28,264.28,0,0,0,126.35,63.44Z"/><path class="cls-11" d="M126.17,58.61c0-.23,0-.45,0-.68,0-.57-.1-1.14-.16-1.71s-.1-.88-.16-1.32-.15-1.12-.24-1.68-.14-.87-.22-1.31-.21-1.09-.32-1.64-.18-.87-.28-1.3l-.39-1.6c-.12-.43-.23-.86-.35-1.29s-.3-1-.46-1.55-.27-.86-.41-1.29-.34-1-.52-1.49-.31-.86-.48-1.29-.37-1-.57-1.42-.36-.87-.55-1.3-.41-.91-.62-1.35-.41-.88-.63-1.31-.43-.85-.65-1.27l-.71-1.33-.68-1.18c-.27-.45-.53-.9-.81-1.34s-.46-.73-.69-1.09l-.9-1.36-.7-1c-.33-.46-.66-.92-1-1.37-.22-.3-.46-.6-.69-.9-.37-.47-.74-.93-1.12-1.39-.22-.26-.44-.53-.67-.79-.41-.47-.82-.94-1.24-1.4-.21-.24-.43-.47-.64-.7-.45-.47-.9-.95-1.37-1.41l-.6-.59c-.49-.48-1-1-1.5-1.42l-.55-.5c-.54-.48-1.09-1-1.64-1.42l-.49-.4c-.59-.48-1.19-1-1.79-1.41l-.42-.31c-.64-.48-1.29-.95-1.94-1.4l-.34-.23c-.69-.47-1.39-.92-2.1-1.37l-.26-.15C95.51,8.9,94.76,8.46,94,8l-.16-.09c-.8-.44-1.6-.87-2.42-1.28l-.07,0A62.8,62.8,0,0,0,68.79.26c.14.28,13.4,26,12.8,55.5A269.68,269.68,0,0,0,126.17,58.61Z"/><path class="cls-12" d="M123.53,44.5c-.17-.56-.35-1.12-.53-1.68-.13-.38-.27-.75-.41-1.12s-.35-1-.54-1.47-.31-.75-.46-1.13-.4-1-.61-1.42-.32-.73-.49-1.09-.45-1-.69-1.43-.33-.68-.51-1c-.26-.51-.54-1-.82-1.52l-.47-.86c-.36-.63-.74-1.25-1.13-1.88l-.26-.43c-.49-.78-1-1.55-1.54-2.31l-.15-.21c-.47-.68-1-1.35-1.46-2l-.4-.51q-.65-.84-1.32-1.65l-.47-.55c-.44-.52-.9-1-1.37-1.56-.15-.16-.3-.33-.46-.49q-.75-.81-1.53-1.59l-.36-.37c-.62-.61-1.25-1.21-1.89-1.79l-.08-.07a63.2,63.2,0,0,0-9.11-6.87l-.09-.06Q95.2,8.7,94,8l0,0A62.84,62.84,0,0,0,68.79.26,133.61,133.61,0,0,1,80.53,38.83c24.4.47,36.83,4.24,43.3,6.61C123.74,45.13,123.63,44.82,123.53,44.5Z"/><path class="cls-13" d="M121,37.62c-.1-.22-.19-.44-.29-.65q-1.12-2.46-2.43-4.78c-.11-.2-.23-.39-.34-.58-.34-.6-.7-1.19-1.06-1.77l-.37-.59c-.41-.63-.82-1.26-1.25-1.88L115,27q-1.58-2.26-3.33-4.36l-.27-.31c-.51-.61-1-1.2-1.57-1.79l-.28-.3a62.45,62.45,0,0,0-6.08-5.76l-.08-.06c-.71-.59-1.43-1.16-2.17-1.72l0,0A62.92,62.92,0,0,0,68.79.26a133.75,133.75,0,0,1,11,33.94c20.54.17,31.63,3.34,41.67,4.58C121.29,38.39,121.13,38,121,37.62Z"/><path class="cls-14" d="M116.74,29.68l-.12-.2c-.46-.73-1-1.46-1.44-2.17l-.33-.47c-.43-.61-.87-1.22-1.33-1.81a3.81,3.81,0,0,0-.24-.32c-.54-.71-1.1-1.41-1.67-2.09l-.17-.19c-.53-.63-1.07-1.25-1.63-1.86l-.25-.27q-1.86-2-3.88-3.86l-.17-.14A62.9,62.9,0,0,0,68.79.26a129.51,129.51,0,0,1,8.85,24.25c11.17,2.45,24.44,4.78,40,6.61C117.32,30.64,117,30.15,116.74,29.68Z"/><path class="cls-15" d="M107.37,18.05,106.24,17l-.77-.72c-.47-.43-1-.84-1.45-1.26l-.74-.63c-.52-.42-1-.83-1.57-1.23l-.71-.55c-.55-.42-1.11-.81-1.68-1.21l-.67-.47c-.59-.4-1.19-.79-1.79-1.17l-.64-.4C95.59,9,95,8.58,94.32,8.22l-.6-.34c-.66-.36-1.33-.72-2-1.06l-.55-.28c-.7-.35-1.41-.68-2.12-1l-.51-.23c-.74-.32-1.48-.63-2.23-.92l-.45-.18c-.78-.3-1.56-.58-2.35-.85l-.39-.13c-.81-.27-1.63-.52-2.46-.76l-.32-.09c-.85-.24-1.71-.47-2.58-.67l-.24-.06c-.9-.21-1.8-.4-2.72-.57l-.13,0c-1-.18-1.91-.33-2.87-.46h0c-1-.14-2-.25-3-.34A119.75,119.75,0,0,1,75.44,17,206.1,206.1,0,0,0,107.37,18.05Z"/></g></g></svg>